<svg width="1149" height="510" viewBox="0 0 1149 510" fill="none" xmlns="http://www.w3.org/2000/svg">
<path d="M22.0384 842.601C20.4215 822.613 28.4618 792.719 51.4135 709.915C58.3842 684.766 67.2874 662.482 88.7553 620.218C110.223 577.954 144.619 516.568 169.994 476.591C207.388 417.68 240.874 389.941 272.755 363.772C308.556 334.383 347.007 313.978 397.058 291.18C430.631 275.887 482.625 257.209 526.362 244.7C570.099 232.191 604.471 227.484 657.09 212.308C709.709 197.133 779.534 171.631 817.809 158.215C872.309 139.112 902.091 128.48 923.903 107.367C958.277 74.0953 987.037 38.7711 1006.88 15.3404C1025.38 -6.49823 1043.25 -43.5279 1081.76 -86.3574C1096.49 -102.737 1106.56 -114.146 1115.87 -128.065C1125.91 -149.535 1133.51 -174.365 1134.23 -186.862C1133.31 -187.772 1130.56 -185.514 1127.72 -183.186" stroke="#162E4C" stroke-width="42" stroke-linecap="round"/>
</svg>
