<svg width="774" height="774" viewBox="0 0 774 774" fill="none" xmlns="http://www.w3.org/2000/svg">
<path d="M-49.9556 752.531C-50.5321 732.485 -40.9502 703.049 -13.7292 621.549C-5.46183 596.796 4.58671 575.005 28.2206 533.912C51.8544 492.82 89.3919 433.303 116.809 394.698C157.211 337.808 192.093 311.847 225.29 287.368C262.569 259.879 302.029 241.497 353.196 221.33C387.518 207.802 440.411 191.848 484.739 181.628C529.067 171.407 563.637 168.491 616.973 156.069C670.309 143.646 741.364 121.805 780.284 110.395C835.703 94.1484 865.997 85.0779 888.876 65.1263C924.931 33.6844 955.487 -0.0984955 976.524 -22.4668C996.133 -43.3152 1015.9 -79.3672 1056.58 -120.139C1072.14 -135.731 1082.79 -146.602 1092.81 -160.019C1103.95 -180.938 1112.83 -205.34 1114.2 -217.783C1113.33 -218.74 1110.46 -216.627 1107.51 -214.45" stroke="#162E4C" stroke-width="42" stroke-linecap="round"/>
</svg>
