<svg width="365" height="622" viewBox="0 0 365 622" fill="none" xmlns="http://www.w3.org/2000/svg">
<path d="M-69.4556 648.531C-70.0321 628.485 -60.4502 599.049 -33.2292 517.549C-24.9618 492.796 -14.9133 471.005 8.72056 429.912C32.3544 388.82 69.8919 329.303 97.3091 290.698C137.711 233.808 172.593 207.847 205.79 183.368C243.069 155.879 282.529 137.497 333.696 117.33C368.018 103.802 420.911 87.8484 465.239 77.6276C509.567 67.4067 544.137 64.4913 597.473 52.0689C650.809 39.6465 721.864 17.8054 760.784 6.39529C816.203 -9.85165 846.497 -18.9221 869.376 -38.8737C905.431 -70.3156 935.987 -104.098 957.024 -126.467C976.633 -147.315 996.396 -183.367 1037.08 -224.139C1052.64 -239.731 1063.29 -250.602 1073.31 -264.019C1084.45 -284.938 1093.33 -309.34 1094.7 -321.783C1093.83 -322.74 1090.96 -320.627 1088.01 -318.45" stroke="#162E4C" stroke-width="24" stroke-linecap="round"/>
</svg>
