<svg width="213" height="68" viewBox="0 0 213 68" fill="none" xmlns="http://www.w3.org/2000/svg">
<path d="M212.917 0H0V67.5063H212.917V0Z" fill="#21497A"/>
<path fill-rule="evenodd" clip-rule="evenodd" d="M25.7087 55.5214C25.3364 55.6029 24.8464 55.9566 23.973 55.766C23.7238 54.7614 23.973 53.3677 23.973 52.3434C24.3313 52.2658 25.5799 52.5025 25.9677 52.588C25.9621 52.8601 25.9201 52.9469 25.8683 53.2283C25.8179 53.5005 25.8179 53.6201 25.7871 53.9672C25.7423 54.4682 25.7073 54.9047 25.7073 55.5227L25.7087 55.5214ZM20.8514 56.0921C20.0437 56.0921 18.4046 55.2229 18.1638 54.8692C17.8223 54.367 17.9021 53.2007 17.9021 52.5893C20.0087 52.5893 18.8273 52.6419 20.4105 52.3381C21.0208 52.2211 21.053 52.2685 21.1118 51.611H21.5457L21.3721 55.2768C21.3735 55.8159 21.4477 56.0921 20.8528 56.0921H20.8514ZM27.618 50.3882C26.0796 50.3882 26.256 50.5052 25.0466 50.1962C23.0519 49.6874 23.3123 49.0339 22.6474 47.3982C22.4276 46.8565 22.24 46.0045 22.24 45.3365C22.24 44.9631 22.4248 44.3491 22.5872 44.0335C23.2283 44.1742 23.6188 44.9329 24.3327 45.4089C24.8114 45.7284 24.992 45.6639 25.2398 46.1044C25.5239 46.608 25.5071 47.4074 26.13 47.8847C26.7809 48.3831 26.6648 47.7546 26.6648 47.1287C27.4556 47.1458 27.6194 47.9465 28.6595 47.2917C28.5489 46.8447 28.0128 46.3529 27.5326 46.232C28.3963 45.0197 28.1723 46.5173 29.5007 45.067C29.5833 44.9763 29.5861 44.9631 29.6561 44.8869L29.8633 44.6752C30.0411 44.4924 30.0873 44.4175 30.3084 44.2781C31.5752 45.0749 30.2188 48.0872 29.6981 48.838C29.2992 49.4126 28.826 49.857 28.1891 50.1897L28.0786 50.2488C27.8868 50.3435 27.8896 50.3895 27.6208 50.3895L27.618 50.3882ZM21.4589 43.2998L21.4855 43.3248C21.4841 43.3235 21.4505 43.309 21.4589 43.2998ZM16.862 45.7441C17.1448 45.7665 17.5157 46.0597 18.2716 45.2761L18.4704 45.0552C18.4816 45.042 18.4984 45.0236 18.5096 45.0105C18.6845 44.8198 18.8581 44.5871 19.1171 44.5226L18.7279 45.8691C18.6411 46.1189 18.35 47.0485 18.8567 47.0485C19.2389 47.0485 19.2459 46.8144 19.5426 46.1439C19.7204 45.7415 20.6582 44.0572 21.0124 43.6956C21.025 43.6825 21.0418 43.6654 21.0544 43.6535C21.067 43.6417 21.0852 43.6246 21.0992 43.6141C21.277 43.4721 21.1104 43.5299 21.3735 43.4642C21.1776 44.2518 20.4819 44.7475 20.7464 45.685C21.0628 46.8 20.6792 46.0203 20.6792 46.6422C20.6792 47.1865 21.109 48.22 21.3511 48.6999C21.6325 49.2561 22.3044 50.1949 22.3282 50.4711C21.6157 50.4711 22.0034 50.6301 20.3307 50.6315C19.8506 50.6328 19.7526 50.7104 19.3774 50.7182C19.1045 50.7248 18.6929 50.6617 18.3416 50.6315C17.8153 50.5868 17.2232 50.2133 16.9586 49.8938C16.6226 49.4875 15.7128 47.0669 15.4006 46.3043C15.2886 46.0308 15.1907 45.8125 15.0969 45.5298L14.7567 44.382C14.7049 44.2005 14.6713 44.169 14.6125 43.9467L14.3466 41.9955C14.3466 41.4827 15.2606 41.6523 15.6414 41.7575L16.3315 42.0047C17.2232 42.265 16.1341 42.2401 18.077 42.2401C18.4774 42.2401 18.406 41.7509 19.2053 41.7509C19.6154 41.7509 19.5524 41.9087 19.8996 41.9955V42.4031L17.0692 45.1222C16.841 45.3799 16.8634 45.3234 16.8634 45.7428L16.862 45.7441ZM22.8475 41.7523L23.8988 42.5569C24.4111 42.8528 25.2762 42.816 25.7157 42.4097L26.0055 42.1112C26.5682 41.5655 27.0105 41.3315 27.0105 40.4479C27.492 40.4584 27.9512 40.962 28.2899 41.2829C28.6455 41.6195 29.2656 42.1559 29.2656 42.6477C29.2656 42.862 29.1088 42.8962 28.7407 43.2131C28.7281 43.2249 28.7085 43.2407 28.6959 43.2525C28.6833 43.2643 28.6637 43.2801 28.6511 43.2919L28.3459 43.576C27.8126 44.0822 27.8266 44.2544 27.5998 44.7527C27.4892 44.9934 27.4962 45.0183 27.1519 44.9736C25.5057 44.758 23.9198 43.9389 23.0939 42.5793L23.0029 42.4176C22.9931 42.4005 22.9805 42.3808 22.9707 42.3637C22.7733 42.0297 22.7523 42.0981 22.8475 41.7509V41.7523ZM25.7969 40.5308C25.4133 40.561 25.2328 40.6438 25.0368 40.8752L24.5819 41.5892C24.1017 41.5511 24.2599 41.438 23.8876 41.3447C23.9016 40.7609 24.3705 40.1902 24.7554 39.9601C25.4721 39.5315 25.8921 39.8181 25.7955 40.5308H25.7969ZM14.173 39.7155H14.4334C14.4992 39.9811 15.1067 40.6938 14.5202 40.6938C14.1744 40.6938 14.173 40.06 14.173 39.7155ZM17.1224 39.9601C17.3617 39.6248 17.5227 39.6551 17.9902 39.5525C17.9958 39.801 18.0294 39.8497 18.077 40.0416C17.5689 40.2941 17.4933 40.4795 17.1238 39.9601H17.1224ZM20.5057 39.471C20.7212 39.3356 21.0418 39.1712 21.3735 39.1449C22.0216 40.0548 21.2882 40.7543 20.9004 40.6386C20.4427 40.5031 20.6792 39.8352 20.5071 39.471H20.5057ZM14.7805 37.6788C15.1277 37.5224 15.1123 37.5973 15.1865 37.5723C15.5924 37.4316 16.4141 37.0582 16.5149 36.7019C16.981 36.9951 16.7668 36.7808 17.093 37.6368C17.1 37.6565 17.149 37.7985 17.1504 37.8077L17.1378 37.9589C17.0384 38.6295 16.0809 37.9431 16.0809 40.0429C15.7758 39.8326 14.8351 38.0891 14.7791 37.6802L14.7805 37.6788ZM23.0211 37.5973C23.3011 37.4711 23.6188 37.5132 23.9744 37.3528L24.2501 37.6657C24.0457 38.0075 23.777 38.1969 23.3934 38.3731C23.1233 38.4967 23.0939 38.5506 23.0253 38.2495L23.0211 37.5973ZM18.1638 36.8636C19.0289 36.8636 18.427 37.2344 19.3914 36.7939C19.9933 36.5205 19.9793 36.3995 20.0913 36.0655L20.1347 35.9432C20.1403 35.9301 20.1473 35.9025 20.1599 35.8841C20.3181 36.5191 20.7534 37.1358 20.7674 37.6762C20.3223 37.7735 20.0157 37.8905 19.7484 38.1851C19.3984 38.5703 19.3802 38.7018 19.3802 39.3868C18.9281 38.899 18.6145 37.9839 18.3976 37.3764L18.1652 36.861L18.1638 36.8636ZM14.6937 37.1897C14.0946 37.1437 14.173 36.4547 14.173 35.8867C14.173 34.9387 14.25 34.5022 15.388 34.5022C15.6974 34.5022 15.8933 34.9531 16.0445 35.1885C16.2475 35.5041 16.4183 35.6724 16.4281 36.1313C15.7002 36.1313 14.7441 36.6112 14.6937 37.1897ZM25.6233 35.2345C25.6233 34.6428 26.053 34.3891 26.2882 33.9841C26.487 33.6409 26.3582 33.6291 26.4268 33.2175C26.4632 32.9953 26.6004 32.7258 26.6648 32.4628C27.2877 32.4628 27.3955 32.5969 27.8868 32.7008C28.8624 32.9072 28.4635 32.9519 29.6141 32.9519C30.1082 32.9519 30.1264 32.6403 30.5086 33.5778C31.1315 35.103 31.1637 40.3703 30.741 42.077H30.4806C30.2916 41.4117 29.5735 41.6181 30.1138 40.5926C30.4428 39.968 30.6766 39.1488 30.307 38.4927C29.4601 38.6781 29.5539 39.7234 28.9198 40.1231L28.4327 39.847C28.2703 39.6498 28.3123 40.0272 28.3123 39.471C28.3123 39.2251 29.092 38.5046 29.092 37.9234C29.092 37.6223 28.9198 37.9037 28.9422 37.237C28.9604 36.6874 28.5825 36.2838 28.1275 36.9359L27.772 37.4987C27.583 37.8222 27.2765 38.3389 27.0105 38.5756C26.3582 38.4336 26.2518 37.8761 26.13 37.1213C26.0964 36.9083 25.6233 35.5922 25.6233 35.2358V35.2345ZM16.5163 33.3609C16.5163 31.8659 17.037 31.0257 18.7713 31.4057C18.8077 31.5542 18.8399 31.6897 18.8987 31.8567C19.2809 32.9427 19.0331 32.8507 19.2599 33.4726C19.5258 34.2063 19.1549 33.5686 19.6126 34.6073L19.7344 34.8992C19.894 35.2187 19.8856 34.9124 19.8982 35.3976C19.5538 35.4252 19.5706 35.5054 19.1087 35.6329L18.4172 35.9616C18.1736 36.1115 18.2618 36.1339 17.9021 36.2115C17.8727 35.8814 17.4555 35.0807 17.2931 34.7467C17.1826 34.5192 17.0622 34.2813 16.9124 34.0459C16.8228 33.9052 16.5149 33.4845 16.5149 33.3595L16.5163 33.3609ZM25.7101 32.5456V32.8717H25.5365C25.5701 32.4931 25.4441 32.7297 25.7101 32.5456ZM25.7101 32.5456C25.8263 32.4628 25.5281 32.4641 25.9705 32.4641C25.8641 32.5391 26.0684 32.5167 25.7101 32.5456ZM20.3321 29.6937C22.24 28.7457 22.8447 28.5971 23.8414 30.6339C24.5553 32.0933 24.1857 33.7593 24.4209 35.3029C24.4881 35.746 24.5819 35.7302 24.5819 36.3745C23.8526 35.9156 23.7014 35.817 22.597 36.3022C22.59 36.3061 22.366 36.4087 22.3618 36.4113C22.3394 36.4245 22.275 36.4639 22.254 36.4784C21.8019 36.786 21.9279 36.8123 21.5611 36.0353C21.4757 35.8551 21.4239 35.7197 21.3287 35.5198L20.871 34.4837C20.4665 33.207 20.5253 34.1353 20.2705 32.2774C20.0521 30.6799 20.3321 30.8653 20.3321 29.6924V29.6937ZM25.8837 27.5755C26.2448 27.4966 26.326 27.5282 26.7404 27.4835C27.0315 27.4519 27.1785 27.3493 27.4836 27.2849C27.6292 27.2547 27.7174 27.2573 27.8546 27.2258C28.4873 27.0811 27.9134 27.0035 29.1802 27.0035L30.0481 31.5661C28.017 31.5661 27.9372 31.3597 26.4044 31.24C26.4044 30.9205 26.424 30.5984 26.3722 30.2933C26.3134 29.9501 26.1874 29.699 26.1538 29.4387C26.067 28.7589 26.1328 28.0962 25.8851 27.5729L25.8837 27.5755ZM25.1026 23.2575C25.1026 23.0143 26.095 22.9012 26.34 22.8723C26.6648 22.8341 26.8831 22.8368 27.1211 22.7907C27.4304 22.7329 27.5326 22.6869 27.877 22.6869C28.0254 23.2102 29.0052 24.5001 29.0052 25.6203C29.0052 25.949 28.6833 25.8767 28.3151 25.8688C27.4262 25.8504 26.144 26.3264 25.8515 26.2028C25.5463 26.0739 25.6723 25.6045 25.4385 24.8156C25.363 24.5579 25.1012 23.5336 25.1012 23.2575H25.1026ZM23.8876 18.6135C23.8876 18.2479 23.896 17.8337 24.1703 17.576C24.7624 17.0185 25.2874 17.2881 25.6037 17.4091C26.4646 17.7351 26.0503 17.8088 26.4422 18.5766L27.4794 20.7803C27.6306 21.0801 27.6166 20.5634 27.6166 21.5469L25.4595 21.9716C24.9864 22.0439 25.2034 21.9887 24.754 21.9545C24.7232 21.6021 24.5973 21.4614 24.5133 21.2037C24.2613 20.4372 23.8876 19.3432 23.8876 18.6135ZM22.7593 18.5319C22.7593 18.7673 22.8741 18.9487 22.9231 19.1933C23.1765 20.4332 23.6818 23.5113 23.966 24.4054C24.0639 24.7131 24.0331 24.7433 24.0849 25.1088L24.3929 26.6117C24.4699 27.0259 24.5189 26.9575 24.5805 27.3323C24.6211 27.5834 24.6295 27.7859 24.6939 28.0396C24.7596 28.2921 24.8184 28.3605 24.8814 28.7602C25.013 29.5899 25.1026 29.6372 25.1026 30.3459C24.3565 29.3374 24.4643 28.4972 23.3319 28.0988C23.3067 28.0896 23.2339 28.0607 23.2087 28.0515C22.324 27.7333 22.1392 28.0041 21.3511 28.1264C20.6233 28.2395 20.6946 28.0581 20.0395 28.3605C19.1605 28.7654 19.1703 29.4018 18.7713 30.1842C17.1728 30.1842 16.0193 30.4327 15.472 31.8106C15.2494 32.3708 15.3026 32.5325 15.3026 33.2807C14.278 33.7895 13.7573 33.7093 13.3695 34.4798C12.594 36.0182 12.9342 39.2014 12.958 40.9436C12.9636 41.3644 13.028 41.392 13.049 41.7549C13.0672 42.0691 13.0266 42.4149 13.0532 42.7292C13.1162 43.5063 13.3989 44.3373 13.5879 44.9973C13.6649 45.2655 13.7265 45.4878 13.8287 45.7494C13.9182 45.9769 13.9966 46.1938 14.0862 46.4029C14.1506 46.5528 14.1492 46.5896 14.2178 46.7684C14.2878 46.9525 14.3046 46.9446 14.3718 47.1129L14.9205 48.4725C15.528 49.9596 16.2223 51.5335 15.6834 53.0298C14.8183 55.4346 16.2209 55.7121 17.5591 56.3406C19.3886 57.2005 20.4623 57.6449 22.59 57.6449C24.3691 57.6449 25.1614 57.2662 26.6788 56.6785C27.0161 56.547 28.3389 56.1144 28.5167 55.9593C28.9548 55.5753 28.791 54.626 28.9814 53.9515C29.1088 53.4965 29.0976 53.4729 29.0948 52.9167C29.092 52.3999 29.1578 51.2941 29.4181 50.7761L29.5595 50.5828C29.5721 50.571 29.5903 50.5552 29.6043 50.5434C29.6169 50.5315 29.6365 50.5171 29.6505 50.5052C30.1194 50.1292 31.4535 49.7479 31.9126 48.2305C32.1841 47.3325 32.1673 46.7342 32.1366 45.7455C32.089 44.2413 31.774 44.1058 32.131 42.1599C32.1967 41.8035 32.2905 41.7049 32.3591 41.3972C32.5901 40.3717 32.4445 38.5703 32.3913 37.5197C32.3507 36.7111 31.7362 33.8092 31.5402 32.6982L31.2267 31.119C30.9495 30.0159 30.8249 28.7733 30.6248 27.9371C30.3224 26.6761 30.8067 26.0292 29.8395 24.1109C29.6911 23.8163 29.8087 24.1582 29.6967 23.7559L29.1872 22.3608C29.1284 22.1978 29.1354 22.1662 29.0612 21.99C29.0066 21.8625 28.9618 21.7993 28.9254 21.7099C28.8526 21.5337 28.875 21.5167 28.8078 21.3313L28.2731 19.9599C28.1905 19.7285 28.1779 19.7981 28.1079 19.6259C27.8182 18.9132 27.786 18.6739 27.3801 17.9468C27.1351 17.509 27.0665 17.0409 26.6928 16.7174C25.8613 15.9982 23.3486 15.9614 22.9721 17.5866C22.9147 17.8377 22.7649 18.361 22.7649 18.5333L22.7593 18.5319ZM47.0331 49.7952H47.3803C47.74 51.2442 47.0653 52.6734 47.873 54.0593C47.9976 54.2736 47.8982 53.9633 47.9878 54.2775L46.9324 54.8469C46.77 54.8968 46.9548 54.9324 46.8008 54.86C46.5362 54.7338 46.7602 51.711 46.7966 51.448C46.8596 50.9917 46.9898 50.2988 47.0345 49.7965L47.0331 49.7952ZM41.3948 50.7735C41.9519 50.7735 41.8875 50.6867 42.306 50.571C43.4455 50.2541 42.5678 50.2857 43.5631 50.2857C43.5631 51.6005 43.6149 51.2047 43.4133 52.4262C43.2509 53.4098 43.3027 53.9949 43.3027 55.0112C43.0213 55.0047 42.4376 54.8035 42.1521 54.7075C41.7797 54.5839 41.399 54.4748 41.0476 54.3591C40.7355 54.2552 40.2078 54.1645 39.9292 54.0238C39.5009 53.8081 39.5205 52.3316 39.4855 51.6689C39.4645 51.2757 39.2979 50.8379 39.4029 50.3593C39.4785 50.0148 39.4939 50.095 39.722 50.2041C39.925 50.3014 39.9796 50.4001 40.219 50.4908C40.3211 50.5302 40.3743 50.5394 40.4751 50.5762C40.8503 50.7117 40.9077 50.7735 41.3934 50.7735H41.3948ZM44.5177 52.7287C44.4029 52.5038 44.4757 51.515 44.5261 51.1074C44.5597 50.8353 44.6801 50.6893 44.7403 50.4132C44.8075 50.116 44.7963 49.9044 44.8635 49.6322C45.2526 49.9004 44.9489 50.4776 44.9503 51.2626C44.9517 51.6137 44.9111 51.803 44.8719 52.0844C44.7669 52.8312 44.6507 52.6813 44.5163 52.7273L44.5177 52.7287ZM46.7728 39.6919C47.7526 39.6919 47.6267 39.613 47.7274 40.018C47.4797 40.1494 47.2893 40.0995 46.8596 40.0995C46.448 40.0995 46.7112 39.9325 46.7728 39.6919ZM43.6498 39.8549C43.6498 39.4499 44.0208 39.3658 44.5177 39.3658C44.7585 39.3658 44.6913 39.7839 44.6913 40.018C44.305 40.0482 43.6512 40.2836 43.6512 39.8549H43.6498ZM40.0062 38.5519C40.4009 38.5519 40.9035 38.5125 41.2296 38.7886C41.4466 38.9727 41.6551 39.8313 41.6551 40.0995C41.6551 40.3454 41.091 40.7451 40.9105 40.9476C40.3309 41.5971 40.2679 41.5419 40.2679 42.3808C41.245 42.3597 41.6481 41.1579 42.2641 41.1579C42.9738 41.1579 42.0275 42.248 41.7363 42.7003L41.385 43.267C41.3038 43.4195 41.224 43.5589 41.1526 43.7009C40.9328 44.1308 40.4975 44.8224 41.119 45.0118C41.4018 45.0986 41.4298 44.9815 41.5782 44.7554L42.5958 43.1C42.894 42.6293 43.1865 42.1401 43.5659 41.7299C43.5659 42.6884 42.8758 43.618 42.8422 44.2912C42.831 44.5227 42.8394 44.3517 42.9598 44.6541L43.5897 46.0255C43.8808 46.6632 44.6325 47.7611 44.6927 48.0044C44.5065 48.0885 44.5163 48.0543 44.3008 48.1253L41.3094 48.8183C40.5717 48.8183 39.96 48.8827 39.2363 48.4041C38.8178 48.1267 38.7674 48.0386 38.5504 47.581C37.4922 45.3576 38.2075 46.3884 37.7455 44.3451C37.6601 43.9691 37.6979 43.8061 37.6615 43.3643L37.194 39.8128C37.0344 38.5269 39.1215 38.5532 40.0076 38.5532L40.0062 38.5519ZM49.8075 37.7367C49.9657 37.8103 49.9167 37.7998 50.1547 37.8182V38.2258H49.7208C49.7683 38.0339 49.8019 37.9852 49.8075 37.7367ZM45.8167 36.7584C46.2829 36.8755 46.3263 37.3961 47.6029 37.0503C48.0704 36.9241 47.8352 36.8492 48.3322 36.84L48.2454 38.4691C48.0088 38.4099 47.7051 38.2245 47.1171 38.2245C46.6034 38.2245 46.462 38.4664 46.0757 38.5506C45.8531 38.1548 45.8153 37.3265 45.8153 36.7584H45.8167ZM45.6432 36.3508C45.6516 36.3429 45.6698 36.364 45.6698 36.3758L45.6432 36.3508ZM40.8727 37.2476C40.8727 37.646 40.9301 37.3159 39.6968 37.5276C38.8948 37.6657 37.7581 37.6749 37.1436 37.9813C36.935 37.1397 36.3695 36.3679 37.3326 35.7144C37.6335 35.5093 38.6316 34.9584 38.9647 34.8848C39.8732 35.6947 38.7856 35.9787 39.5191 36.2364C39.995 36.4034 39.9586 36.1983 40.3911 36.5612C40.5885 36.7269 40.8741 36.9583 40.8741 37.2476H40.8727ZM47.6379 33.7448C48.0564 33.7448 48.9103 34.2997 49.5136 33.7961L49.9699 33.328C49.9825 33.3162 49.9993 33.2977 50.0105 33.2859C50.1533 33.136 50.3577 32.8836 50.5606 32.8165C50.7944 32.7389 51.2815 32.9782 51.4299 33.0348C51.4495 33.0427 51.4719 33.0506 51.4915 33.0584L52.2726 33.3845C52.5819 33.5226 52.253 33.4279 52.5833 33.5002C52.5693 34.1051 52.0626 34.1945 52.0626 34.56C52.0626 36.2286 52.0962 35.5383 52.8437 35.5383C53.377 35.5383 52.8591 36.2719 53.538 36.2719C53.9243 36.2719 53.5758 36.0418 54.2323 36.0274C54.4507 36.9083 54.7558 37.3383 54.9252 38.31C54.9826 38.6374 55.0988 38.878 55.0988 39.2054C55.0988 40.7543 54.6382 40.7556 54.0615 41.6536C53.608 42.3597 52.9543 43.7035 52.6155 44.5332C52.239 45.4562 50.7622 47.8427 49.7194 47.8427C49.2742 47.8427 48.8067 47.8663 48.4077 47.7717L47.2179 47.4219C45.9329 46.8946 46.2647 47.1616 45.065 45.5338C44.8397 45.2274 44.6325 44.9408 44.5121 44.5858C44.179 43.6009 44.6437 43.121 45.3744 41.8877L45.7285 41.4064L47.1157 41.488C47.1157 42.7213 47.7974 42.2151 48.3658 41.5222C48.6135 41.2197 48.8291 41.058 49.095 40.7411C50.1519 39.4894 50.9302 40.7161 50.9302 39.4513C51.3851 39.4605 51.4537 39.6393 51.7477 39.8234C52.3538 40.2047 53.1474 40.4387 53.6192 39.7773C53.3938 39.3776 52.9277 39.2488 52.337 38.945C51.6679 38.6019 50.779 38.0509 51.6147 37.2436L51.9702 36.9254C51.7575 36.0642 50.6502 36.8978 48.7241 35.0859C48.2062 34.5994 47.9906 34.3825 47.6323 33.7487L47.6379 33.7448ZM36.014 32.8481C36.014 32.2025 36.0042 32.3931 36.3499 32.1867C36.7209 31.9658 37.2878 31.645 37.7497 31.545L38.4804 33.3911C38.5588 33.8671 38.2299 33.8552 38.1081 33.9184C36.5053 34.7493 36.8497 34.9374 36.4675 34.0538L36.2841 33.6554C36.2771 33.6343 36.2729 33.612 36.2673 33.591C36.2057 33.3924 36.2589 33.5186 36.1848 33.3424C36.112 33.1689 36.014 33.1084 36.014 32.8494V32.8481ZM44.4281 36.1076C43.2971 36.1076 43.3293 35.8104 42.3466 36.0261C42.3242 36.2785 42.348 36.1799 42.2599 36.3521C42.2976 36.4061 42.4838 36.6388 42.5258 36.673C42.9108 36.982 43.5547 36.8031 44.5135 36.7427C44.5149 37.9431 44.6773 37.9379 44.3176 38.0338C44.046 38.1049 43.7688 38.0246 43.4973 38.0851C43.3391 38.1193 43.0983 38.2784 42.9696 38.4046C42.7596 38.6084 42.7694 38.6571 42.6938 38.9595L41.6901 36.0721C41.5824 35.7999 41.63 36.0182 41.553 35.6316C41.4844 35.2819 41.3808 35.0886 41.3164 34.7954C41.2394 34.4456 41.217 34.1524 41.1316 33.8276C40.9804 33.2451 40.9161 32.3287 41.1456 31.8843C41.6425 30.9192 42.5286 30.9152 43.5071 31.3518C43.9494 31.549 43.7716 31.6621 43.8724 32.1486C44.1594 33.5252 44.4281 34.681 44.4281 36.1076ZM48.7661 32.8481C48.4315 32.8744 48.5001 32.9217 48.1642 32.8494C47.7694 32.7639 47.8814 32.6877 47.5525 32.6048C47.5525 31.5424 48.4805 31.3255 49.1132 31.9527C48.9621 32.5614 48.8081 32.3747 48.7661 32.8494V32.8481ZM49.634 30.8929L50.0287 30.6115C50.5886 30.3091 50.744 30.3814 51.7826 30.5852C53.4946 30.9218 53.552 32.2774 52.8437 32.2774C52.5147 32.2774 50.961 31.6949 50.5256 31.5214L50.2443 31.3781C49.9391 31.2098 49.8677 31.2216 49.6326 30.8929H49.634ZM47.726 35.9445C47.1829 35.9866 47.3257 36.0247 46.7 35.9301C45.9273 35.8117 46.2479 35.8946 45.6446 36.0261C45.6446 35.7591 45.5886 35.37 45.5452 35.0596C45.4612 34.4522 45.3492 34.1261 45.296 33.1741C45.2722 32.7245 44.8341 32.0578 45.4556 31.123C45.7663 30.6549 47.1339 30.484 46.5712 31.1808C45.9231 31.9829 45.8307 32.3997 46.0659 33.4279C46.1765 33.9118 46.5418 34.4022 46.833 34.7454L47.4769 35.4436C47.6939 35.6776 47.6995 35.6513 47.7246 35.9432L47.726 35.9445ZM35.2357 31.382C34.589 30.1171 35.0537 29.5083 36.7965 29.5083C36.977 29.5083 37.0932 29.5951 37.1954 29.7043C38.0437 30.6076 36.9588 30.359 36.0644 30.9402C35.706 31.1716 35.7284 31.3439 35.2343 31.382H35.2357ZM33.8485 27.3086C33.8485 26.7498 33.7099 25.8175 34.246 25.4007C34.477 25.2206 34.4798 25.2719 34.9767 25.2719C35.3771 25.2719 35.7662 26.1936 35.853 26.567C36.2631 28.321 36.6719 28.4906 35.6206 28.7299C34.54 28.9758 34.5568 29.3269 34.0515 27.7701C33.9479 27.4519 33.8485 27.5124 33.8485 27.3086ZM32.8938 25.8425C32.8938 27.5939 32.9946 26.7393 33.1304 27.5755C33.269 28.4328 33.2284 27.9515 33.3628 28.417C33.4804 28.8259 33.3558 28.8904 33.5461 29.3032C33.6847 29.6017 33.6245 29.3072 33.6763 29.7516C33.7099 30.0356 33.6749 29.9922 33.7771 30.2262C34.0375 30.8245 33.8163 30.5089 34.1453 31.428L34.512 32.714C34.7276 33.3622 35.5101 34.9716 35.5996 35.4396L35.8194 36.9438C35.9146 37.6354 35.8572 38.3152 35.9664 39.0068L36.2785 43.0316C36.3807 47.0735 37.7301 48.4107 37.8547 49.1286C38.2676 51.5058 37.9975 52.254 38.0927 54.363C38.1109 54.7496 38.2005 54.8863 38.4762 55.0612C39.0025 55.3925 39.6842 55.4596 40.2708 55.5753C40.5857 55.6384 40.9594 55.6621 41.2324 55.7305C43.9592 56.4234 43.5967 57.115 46.7504 56.5378C48.2244 56.2682 48.4861 55.6069 49.5472 54.8469C51.3193 53.5754 50.8476 53.419 50.8476 51.6689C50.8476 50.9615 50.849 50.2541 50.8434 49.5467C50.8406 49.0799 50.8266 48.9747 51.0814 48.7118L52.9375 46.6251L53.587 45.5246C54.2547 44.236 54.9056 42.7213 55.6797 41.5419C57.2054 39.2172 55.8784 37.5395 55.4571 35.1188C55.068 32.8875 54.949 33.8513 54.641 32.3813C54.5976 32.1735 54.487 31.8961 54.4297 31.6831C54.3191 31.2637 54.3653 31.4017 54.1077 31.0888C52.6085 29.273 52.7303 29.507 50.1533 29.507C49.2336 29.507 48.9915 29.8739 48.4175 30.1592C47.6015 29.6451 47.4825 29.5885 46.5096 29.5885C44.8523 29.5885 44.8411 30.505 44.0334 30.2118C42.7036 29.7279 40.5227 29.8423 39.9796 31.6831C39.9194 31.8882 39.8522 31.9356 39.7864 32.1525C39.7276 32.3405 39.701 32.589 39.6576 32.7652C38.9227 31.9724 39.1481 30.8232 38.1459 29.2966C37.2402 27.9134 37.5034 27.8411 36.8972 26.3961C36.7937 26.1502 36.6579 25.5283 36.4577 25.1798C35.9216 24.241 35.0145 23.8887 33.9535 24.3133C33.7799 24.383 33.6021 24.4909 33.4482 24.6539C33.2942 24.8156 32.891 25.5914 32.891 25.8412L32.8938 25.8425ZM71.1194 54.5261C70.747 54.6076 70.2571 54.9613 69.3837 54.7706C69.1345 53.7674 69.3837 52.3723 69.3837 51.3481C69.742 51.2705 70.9906 51.5072 71.3784 51.5926C71.3728 51.8648 71.3308 51.9516 71.279 52.2316C71.2286 52.5051 71.2286 52.6235 71.1978 52.9706C71.153 53.4715 71.1194 53.9081 71.1194 54.5261ZM66.2621 55.0967C65.4544 55.0967 63.8153 54.2276 63.5745 53.8739C63.233 53.3716 63.3127 52.2067 63.3127 51.5939C65.4194 51.5939 64.238 51.6465 65.8212 51.3428C66.4315 51.2258 66.4637 51.2731 66.5225 50.6157H66.9564L66.7828 54.2815C66.7842 54.8206 66.8584 55.0967 66.2635 55.0967H66.2621ZM73.0287 49.3929C71.4903 49.3929 71.6667 49.5099 70.4573 49.2009C68.4612 48.6921 68.7229 48.0386 68.058 46.4029C67.8383 45.8625 67.6507 45.0091 67.6507 44.3412C67.6507 43.9678 67.8355 43.3537 67.9978 43.0382C68.639 43.1789 69.0295 43.9375 69.7434 44.4135C70.2221 44.733 70.4027 44.6686 70.6505 45.1091C70.9346 45.6127 70.9178 46.4121 71.5393 46.8894C72.1902 47.3877 72.0741 46.7592 72.0741 46.1333C72.8649 46.1504 73.0287 46.9512 74.0688 46.2964C73.9582 45.8493 73.4221 45.3576 72.9405 45.2366C73.8042 44.0243 73.5802 45.5219 74.9086 44.0703C74.9912 43.9796 74.994 43.9678 75.064 43.8902L75.2712 43.6785C75.449 43.4944 75.4951 43.4208 75.7163 43.2814C76.9831 44.0782 75.6267 47.0906 75.106 47.8413C74.7071 48.4159 74.2339 48.859 73.597 49.193L73.4864 49.2522C73.2947 49.3455 73.2975 49.3929 73.0287 49.3929ZM66.8696 42.3045L66.8962 42.3295C66.8948 42.3282 66.8612 42.3124 66.8696 42.3045ZM62.2727 44.7488C62.5555 44.7712 62.9264 45.0644 63.6823 44.2807L63.8811 44.0598C63.8923 44.0467 63.9091 44.0283 63.9203 44.0151C64.0952 43.8245 64.2688 43.5917 64.5278 43.5273L64.1386 44.8737C64.0518 45.1235 63.7607 46.0531 64.2674 46.0531C64.6496 46.0531 64.6565 45.8191 64.9533 45.1498C65.1311 44.7475 66.0689 43.0632 66.4231 42.7016C66.4357 42.6884 66.4525 42.6713 66.4651 42.6595C66.4777 42.6477 66.4959 42.6306 66.5099 42.6201C66.6876 42.4767 66.5211 42.5359 66.7842 42.4702C66.5897 43.2591 65.8926 43.7548 66.1585 44.6909C66.4749 45.8059 66.0913 45.0262 66.0913 45.6482C66.0913 46.1925 66.5197 47.226 66.7618 47.7072C67.0432 48.2634 67.7151 49.2022 67.7389 49.4783C67.0264 49.4783 67.4141 49.6374 65.7414 49.6387C65.2613 49.6387 65.1633 49.7176 64.7881 49.7255C64.5152 49.7321 64.1036 49.6677 63.7523 49.6387C63.226 49.594 62.6338 49.2206 62.3693 48.9011C62.0333 48.4948 61.1235 46.0755 60.8113 45.3116C60.6993 45.0381 60.6013 44.8198 60.5076 44.5384L60.1674 43.3906C60.1156 43.2091 60.082 43.1776 60.0232 42.9553L59.7573 41.0041C59.7573 40.4913 60.6713 40.6609 61.0507 40.7661L61.7422 41.0146C62.6338 41.275 61.5448 41.2487 63.4877 41.2487C63.8881 41.2487 63.8167 40.7595 64.616 40.7595C65.0261 40.7595 64.9631 40.9173 65.3102 41.0041V41.4117L62.4799 44.1321C62.2517 44.3899 62.2741 44.3333 62.2741 44.7527L62.2727 44.7488ZM68.2582 40.7556L69.3095 41.5603C69.8218 41.8561 70.6869 41.8193 71.1264 41.413L71.4161 41.1146C71.9789 40.5689 72.4212 40.3348 72.4212 39.4513C72.9027 39.4618 73.3605 39.9654 73.7006 40.2862C74.0562 40.6228 74.6763 41.1606 74.6763 41.651C74.6763 41.8653 74.5195 41.8995 74.1513 42.2164C74.1387 42.2269 74.1191 42.244 74.1066 42.2545C74.0926 42.2664 74.0744 42.2835 74.0618 42.2953L73.7566 42.5793C73.2233 43.0855 73.2373 43.2578 73.0105 43.7561C72.8999 43.9967 72.9069 44.023 72.5626 43.977C70.9164 43.7613 69.3305 42.9422 68.5032 41.5826L68.4122 41.4209C68.4024 41.4051 68.3898 41.3841 68.38 41.367C68.1826 41.033 68.1616 41.1014 68.2568 40.7543L68.2582 40.7556ZM71.2076 39.5341C70.824 39.5643 70.6435 39.6472 70.4475 39.8799L69.9926 40.5939C69.511 40.557 69.6706 40.4427 69.2983 40.3493C69.3123 39.7655 69.7812 39.1949 70.1661 38.9648C70.8828 38.5361 71.3028 38.8228 71.2062 39.5354L71.2076 39.5341ZM59.5837 38.7189H59.8441C59.9098 38.9845 60.5174 39.6971 59.9308 39.6971C59.5851 39.6971 59.5837 39.0634 59.5837 38.7189ZM62.5331 38.9634C62.7724 38.6282 62.9334 38.6584 63.4009 38.5558C63.4065 38.8043 63.4401 38.853 63.4877 39.045C62.9796 39.2974 62.904 39.4828 62.5331 38.9634ZM65.9164 38.4743C66.1305 38.3389 66.4525 38.1745 66.7842 38.1482C67.4337 39.0581 66.6988 39.7576 66.3111 39.6419C65.8534 39.5065 66.0899 38.8385 65.9178 38.4743H65.9164ZM60.1912 36.6822C60.5384 36.5257 60.523 36.6007 60.5971 36.5744C61.0031 36.4337 61.8248 36.0602 61.9255 35.7039C62.3917 35.9971 62.1775 35.7841 62.5051 36.6388C62.5121 36.6572 62.5611 36.8005 62.5611 36.8097L62.5485 36.9609C62.4491 37.6302 61.4916 36.9451 61.4916 39.045C61.1865 38.8346 60.2458 37.0911 60.1912 36.6822ZM68.4318 36.6007C68.7117 36.4744 69.0295 36.5165 69.3864 36.3561L69.6622 36.669C69.4578 37.0109 69.1891 37.2002 68.8055 37.3764C68.5354 37.5 68.506 37.5539 68.4374 37.2528L68.4318 36.6007ZM63.5745 35.867C64.4396 35.867 63.8377 36.2364 64.8007 35.7973C65.4026 35.5238 65.3886 35.4015 65.5006 35.0689L65.544 34.9466C65.5496 34.9334 65.5566 34.9058 65.5678 34.8887C65.726 35.5238 66.1627 36.1405 66.1753 36.6809C65.7302 36.7782 65.4236 36.8952 65.1563 37.1897C64.8063 37.575 64.7881 37.7064 64.7881 38.3915C64.336 37.9037 64.0224 36.9872 63.8055 36.3811L63.5731 35.8657L63.5745 35.867ZM60.1044 36.1931C59.5053 36.147 59.5837 35.4567 59.5837 34.89C59.5837 33.942 59.6607 33.5055 60.7987 33.5055C61.1081 33.5055 61.304 33.9565 61.4552 34.1918C61.6582 34.5074 61.829 34.6757 61.8388 35.1346C61.1109 35.1346 60.1548 35.6145 60.1044 36.1944V36.1931ZM71.034 34.2379C71.034 33.6462 71.4637 33.3924 71.6989 32.9874C71.8977 32.6456 71.7689 32.6324 71.8375 32.2209C71.8739 32 72.0111 31.7291 72.0754 31.4662C72.6998 31.4662 72.8061 31.6003 73.2975 31.7041C74.2731 31.9093 73.8742 31.9553 75.0248 31.9553C75.5189 31.9553 75.5371 31.6437 75.9193 32.5811C76.5422 34.1064 76.5744 39.375 76.1516 41.0804H75.8913C75.7023 40.415 74.9842 40.6215 75.5231 39.5946C75.8521 38.97 76.0859 38.1509 75.7177 37.4948C74.8708 37.6802 74.9646 38.7255 74.3305 39.1239L73.8434 38.8477C73.681 38.6505 73.723 39.0279 73.723 38.4717C73.723 38.2258 74.5041 37.5053 74.5041 36.9241C74.5041 36.623 74.3319 36.9057 74.3543 36.2378C74.3725 35.6881 73.9946 35.2845 73.5396 35.9367L73.1855 36.4994C72.9965 36.8229 72.69 37.3396 72.424 37.5763C71.7717 37.4343 71.6653 36.8768 71.5435 36.1221C71.5099 35.909 71.0368 34.5929 71.0368 34.2365L71.034 34.2379ZM61.9255 32.3642C61.9255 30.8692 62.4463 30.029 64.1806 30.409C64.217 30.5576 64.2492 30.693 64.308 30.86C64.6901 31.9461 64.4424 31.854 64.6691 32.476C64.9351 33.2096 64.5642 32.5719 65.0219 33.6107L65.1451 33.9026C65.3046 34.2221 65.2962 33.9157 65.3089 34.4009C64.9645 34.4272 64.9813 34.5087 64.5194 34.6363L63.8279 34.965C63.5843 35.1149 63.6725 35.1372 63.3141 35.2161C63.2847 34.8848 62.8676 34.0853 62.7052 33.7514C62.5947 33.5239 62.4743 33.2859 62.3245 33.0506C62.2349 32.9099 61.9269 32.4891 61.9269 32.3642H61.9255ZM71.1208 31.549V31.8751H70.9472C70.9808 31.4964 70.8548 31.7331 71.1208 31.549ZM71.1208 31.549C71.237 31.4662 70.9388 31.4675 71.3811 31.4675C71.2748 31.5424 71.4791 31.5201 71.1208 31.549ZM65.7428 28.6971C67.6507 27.7491 68.2554 27.6005 69.2521 29.6372C69.966 31.0967 69.5978 32.7626 69.833 34.3062C69.9002 34.7493 69.994 34.7336 69.994 35.3778C69.2647 34.919 69.1135 34.8203 68.009 35.3055C68.0021 35.3095 67.7781 35.4107 67.7739 35.4133C67.7515 35.4265 67.6871 35.4659 67.6661 35.4804C67.214 35.7881 67.3399 35.8144 66.9732 35.0386C66.8878 34.8585 66.836 34.723 66.7408 34.5232L66.2831 33.4871C65.8786 32.2104 65.9374 33.1386 65.6826 31.2808C65.4642 29.6832 65.7442 29.8686 65.7442 28.6958L65.7428 28.6971ZM71.2944 26.5788C71.6555 26.5 71.7367 26.5315 72.151 26.4881C72.4422 26.4566 72.5892 26.354 72.8943 26.2896C73.0399 26.2593 73.1281 26.2606 73.2653 26.2304C73.898 26.0858 73.3241 26.0082 74.5909 26.0082L75.4587 30.5707C73.4277 30.5707 73.3479 30.3643 71.8151 30.2447C71.8151 29.9251 71.8347 29.603 71.7829 29.298C71.7241 28.9548 71.5981 28.7036 71.5645 28.4433C71.4777 27.7648 71.5435 27.1008 71.2944 26.5775V26.5788ZM70.5147 22.2609C70.5147 22.0176 71.5071 21.9045 71.7521 21.8756C72.0769 21.8375 72.2952 21.8388 72.5332 21.7941C72.8425 21.7362 72.9447 21.6902 73.2905 21.6902C73.4388 22.2135 74.4187 23.5034 74.4187 24.6237C74.4187 24.9537 74.0967 24.8801 73.7286 24.8722C72.8397 24.8538 71.5575 25.3297 71.2636 25.2061C70.9584 25.0773 71.0844 24.6079 70.852 23.819C70.7764 23.5613 70.5147 22.5383 70.5147 22.2622V22.2609ZM69.2997 17.6168C69.2997 17.2513 69.3081 16.8371 69.5824 16.5794C70.1745 16.0232 70.6994 16.2914 71.0158 16.4124C71.8767 16.7398 71.4609 16.8121 71.8543 17.58L72.8915 19.7837C73.0427 20.0835 73.0287 19.5667 73.0287 20.5516L70.8716 20.9763C70.3971 21.0486 70.6155 20.9933 70.1661 20.9592C70.1353 20.6081 70.0094 20.4661 69.9254 20.2084C69.6734 19.4418 69.2997 18.3479 69.2997 17.6194V17.6168ZM68.1714 17.5353C68.1714 17.7706 68.2848 17.9534 68.3352 18.1967C68.5886 19.4366 69.0939 22.5133 69.378 23.4087C69.476 23.7164 69.4452 23.7453 69.4956 24.1122L69.8036 25.6151C69.8806 26.0292 69.9296 25.9609 69.9911 26.3356C70.0317 26.5867 70.0401 26.7892 70.1045 27.043C70.1703 27.2954 70.2291 27.3638 70.2921 27.7635C70.4237 28.5932 70.5133 28.6405 70.5133 29.3492C69.7672 28.3407 69.875 27.5006 68.7425 27.1022C68.716 27.093 68.6446 27.064 68.6194 27.0548C67.7347 26.7366 67.5499 27.0075 66.7618 27.1298C66.0339 27.2428 66.1053 27.0614 65.4502 27.3638C64.5698 27.7701 64.581 28.4052 64.182 29.1875C62.5835 29.1875 61.43 29.436 60.8827 30.814C60.6601 31.3741 60.7119 31.5358 60.7119 32.2827C59.6887 32.7915 59.1666 32.7113 58.7788 33.4818C58.0033 35.0215 58.3435 38.2035 58.3673 39.9456C58.3729 40.3664 58.4373 40.394 58.4583 40.7569C58.4765 41.0712 58.4359 41.417 58.4625 41.7312C58.5255 42.5083 58.8082 43.3393 58.9972 43.9993C59.0742 44.2676 59.1358 44.4898 59.2365 44.7514C59.3261 44.9789 59.4045 45.1959 59.4955 45.4049C59.5599 45.5548 59.5585 45.5916 59.6271 45.7704C59.6971 45.9545 59.7139 45.9466 59.7811 46.1149L60.3284 47.4745C60.9359 48.9629 61.6302 50.5355 61.0913 52.0331C60.2262 54.438 61.6288 54.7154 62.967 55.3439C64.7965 56.2038 65.8702 56.6469 67.9978 56.6469C69.777 56.6469 70.5693 56.2669 72.0866 55.6805C72.424 55.5503 73.7468 55.1164 73.9246 54.9613C74.3627 54.5773 74.1989 53.628 74.3893 52.9535C74.5181 52.4999 74.5055 52.4749 74.5027 51.92C74.4999 51.4046 74.5657 50.2975 74.826 49.7794L74.9674 49.5862C74.98 49.5743 74.9982 49.5585 75.0122 49.5467C75.0248 49.5349 75.0444 49.5191 75.0584 49.5086C75.5273 49.1325 76.8613 48.7512 77.3205 47.2326C77.592 46.3345 77.5752 45.7363 77.5444 44.7488C77.4968 43.2433 77.1819 43.1079 77.5388 41.1632C77.6046 40.8069 77.6984 40.7083 77.767 40.4006C77.998 39.375 77.8524 37.5736 77.8006 36.5231C77.76 35.7144 77.1455 32.8126 76.9495 31.7015L76.636 30.1224C76.3588 29.0192 76.2342 27.7767 76.0341 26.9391C75.7317 25.6782 76.216 25.0326 75.2488 23.1142C75.1004 22.8197 75.218 23.1615 75.106 22.7592L74.5965 21.3641C74.5377 21.2011 74.5461 21.1695 74.4705 20.9933C74.4159 20.8658 74.3711 20.8027 74.3347 20.7133C74.2619 20.5371 74.2843 20.52 74.2171 20.3346L73.6824 18.9632C73.5998 18.7318 73.5872 18.8015 73.5172 18.6292C73.2275 17.9166 73.1953 17.6773 72.7893 16.9502C72.5444 16.5123 72.4758 16.0442 72.1021 15.7221C71.2706 15.0029 68.7579 14.9647 68.3814 16.5912C68.324 16.8424 68.1742 17.3657 68.1742 17.5366L68.1714 17.5353ZM92.4452 48.7986H92.7924C93.1521 50.2475 92.4774 51.6768 93.2851 53.0613C93.4097 53.2756 93.3117 52.9653 93.3999 53.2796L92.3445 53.8489C92.1821 53.8989 92.3669 53.9344 92.2129 53.8607C91.9483 53.7345 92.1723 50.7117 92.2087 50.45C92.2717 49.9938 92.4018 49.3008 92.4466 48.7986H92.4452ZM86.8069 49.7755C87.3654 49.7755 87.2996 49.6887 87.7181 49.5717C88.8576 49.2548 87.9799 49.2864 88.9751 49.2864C88.9751 50.6012 89.0269 50.2055 88.8254 51.4269C88.663 52.4105 88.7148 52.9969 88.7148 54.012C88.4334 54.0067 87.8497 53.8042 87.5642 53.7082C87.1918 53.5846 86.8111 53.4755 86.4597 53.3598C86.1476 53.2572 85.6199 53.1652 85.3413 53.0245C84.913 52.8089 84.9325 51.3323 84.8975 50.6696C84.8765 50.2765 84.71 49.8386 84.815 49.36C84.8906 49.0155 84.906 49.0957 85.1341 49.2048C85.3371 49.3021 85.3917 49.4008 85.6311 49.4915C85.7332 49.5309 85.7864 49.5401 85.8872 49.577C86.2623 49.7124 86.3197 49.7742 86.8055 49.7742L86.8069 49.7755ZM89.9298 51.7307C89.815 51.5058 89.8878 50.5171 89.9382 50.1095C89.9718 49.8373 90.0908 49.6913 90.1524 49.4152C90.2182 49.1181 90.2084 48.9064 90.2756 48.6342C90.6647 48.9024 90.3609 49.4797 90.3637 50.2646C90.3651 50.6157 90.3246 50.8037 90.2854 51.0864C90.1804 51.8332 90.0642 51.6833 89.9298 51.7294V51.7307ZM92.1849 38.6939C93.1647 38.6939 93.0387 38.615 93.1395 39.02C92.8918 39.1515 92.7014 39.1015 92.2717 39.1015C91.8587 39.1015 92.1233 38.9345 92.1849 38.6939ZM89.0619 38.8569C89.0619 38.452 89.4329 38.3691 89.9298 38.3691C90.1706 38.3691 90.1034 38.7859 90.1034 39.0213C89.717 39.0515 89.0619 39.2869 89.0619 38.8583V38.8569ZM85.4183 37.5539C85.813 37.5539 86.3155 37.5145 86.6417 37.7906C86.8587 37.9747 87.0672 38.8333 87.0672 39.1015C87.0672 39.3487 86.5031 39.7471 86.3211 39.9496C85.743 40.5991 85.6786 40.5439 85.6786 41.3828C86.6557 41.3617 87.0588 40.1613 87.6747 40.1613C88.3844 40.1613 87.4382 41.2513 87.147 41.7036L86.7957 42.2703C86.7145 42.4228 86.6347 42.5622 86.5633 42.7042C86.3435 43.1342 85.9082 43.8258 86.5297 44.0151C86.8125 44.1019 86.8405 43.9849 86.9888 43.7587L88.0051 42.1033C88.3032 41.6326 88.5958 41.1435 88.9751 40.7332C88.9751 41.6918 88.285 42.6214 88.2515 43.2946C88.2403 43.526 88.2473 43.3551 88.369 43.6575L88.9989 45.0289C89.2901 45.6666 90.0418 46.7632 90.102 47.0077C89.9158 47.0919 89.9256 47.0577 89.71 47.1287L86.7187 47.8229C85.981 47.8229 85.3693 47.8874 84.6456 47.4088C84.227 47.1313 84.1767 47.0432 83.9597 46.5857C82.9015 44.3609 83.6168 45.3931 83.1548 43.3498C83.0694 42.9738 83.1058 42.8107 83.0708 42.3689L82.6033 38.8175C82.4437 37.5316 84.5308 37.5579 85.4169 37.5579L85.4183 37.5539ZM95.2196 36.7387C95.3778 36.8123 95.3288 36.8018 95.5668 36.8202V37.2278H95.1328C95.1804 37.0359 95.214 36.9872 95.2196 36.7387ZM91.2288 35.7605C91.6949 35.8775 91.7383 36.3982 93.015 36.0537C93.4825 35.9274 93.2473 35.8525 93.7442 35.842L93.6575 37.4711C93.4209 37.4119 93.1171 37.2265 92.5292 37.2265C92.0141 37.2265 91.8741 37.4685 91.4878 37.5526C91.2652 37.1568 91.2274 36.3285 91.2274 35.7605H91.2288ZM91.0552 35.3529C91.0636 35.345 91.0804 35.366 91.0804 35.3765L91.0552 35.3529ZM86.2848 36.2496C86.2848 36.648 86.3435 36.318 85.1089 36.5297C84.3068 36.6677 83.1702 36.6769 82.5557 36.9833C82.3471 36.1418 81.7816 35.37 82.7447 34.7165C83.0456 34.5127 84.0437 33.9604 84.3768 33.8868C85.2853 34.6968 84.1977 34.9808 84.9311 35.2385C85.4071 35.4055 85.3707 35.2017 85.8032 35.5632C86.0006 35.7289 86.2861 35.9603 86.2861 36.2509L86.2848 36.2496ZM93.0513 32.7455C93.4685 32.7455 94.3238 33.3004 94.9271 32.7968L95.3834 32.3287C95.396 32.3155 95.4128 32.2985 95.424 32.2853C95.5668 32.1367 95.7711 31.8843 95.9741 31.8159C96.2079 31.7383 96.695 31.9776 96.8434 32.0342C96.863 32.0421 96.8854 32.0499 96.905 32.0578L97.6847 32.3839C97.9954 32.522 97.6651 32.4273 97.9954 32.4996C97.9814 33.1045 97.4761 33.1939 97.4761 33.5594C97.4761 35.228 97.5097 34.5363 98.2572 34.5363C98.7905 34.5363 98.2726 35.27 98.9515 35.27C99.3378 35.27 98.9893 35.0399 99.6458 35.0255C99.8641 35.9064 100.169 36.3364 100.339 37.308C100.396 37.6354 100.512 37.8761 100.512 38.2035C100.512 39.7524 100.052 39.7537 99.475 40.6517C99.0215 41.3578 98.3678 42.7016 98.029 43.5312C97.6525 44.4543 96.1757 46.8407 95.1328 46.8407C94.6877 46.8407 94.2202 46.8644 93.8212 46.7697L92.6314 46.42C91.3464 45.8927 91.6781 46.1596 90.4785 44.5319C90.2532 44.2255 90.046 43.9389 89.9256 43.5838C89.5925 42.599 90.0572 42.1191 90.7879 40.8858L91.142 40.4032L92.5292 40.4847C92.5292 41.7168 93.2109 41.2118 93.7792 40.5189C94.027 40.2178 94.2412 40.0548 94.5085 39.7379C95.5654 38.4862 96.3437 39.7129 96.3437 38.448C96.7986 38.4572 96.8672 38.6347 97.1611 38.8201C97.7673 39.2014 98.5609 39.4342 99.0327 38.7741C98.8073 38.3744 98.3412 38.2455 97.7505 37.9418C97.0814 37.5986 96.1939 37.0477 97.0282 36.2404L97.3837 35.9222C97.1709 35.061 96.0637 35.8933 94.139 34.0827C93.6211 33.5962 93.4055 33.3793 93.0471 32.7442L93.0513 32.7455ZM81.4275 31.8501C81.4275 31.2045 81.4177 31.3952 81.7634 31.1887C82.1344 30.9678 82.7013 30.647 83.1618 30.5471L83.8925 32.3931C83.9709 32.8691 83.6419 32.8573 83.5202 32.9204C81.9174 33.7514 82.2617 33.9394 81.8796 33.0558L81.6962 32.6574C81.6892 32.6364 81.685 32.614 81.6794 32.5917C81.6178 32.3931 81.671 32.5194 81.5982 32.3432C81.5255 32.1696 81.4275 32.1091 81.4275 31.8514V31.8501ZM89.8416 35.1096C88.7106 35.1096 88.7428 34.8125 87.7601 35.0281C87.7363 35.2805 87.7615 35.1819 87.6733 35.3542C87.7111 35.4081 87.8973 35.6408 87.9393 35.675C88.3242 35.984 88.9681 35.8052 89.927 35.7447C89.9284 36.9452 90.0908 36.9399 89.731 37.0359C89.4595 37.1082 89.1823 37.0267 88.9108 37.0872C88.7526 37.1213 88.5118 37.2804 88.383 37.4067C88.1731 37.6105 88.1829 37.6591 88.1073 37.9615L87.1036 35.0741C86.9958 34.8019 87.0434 35.0202 86.9664 34.6323C86.8979 34.2826 86.7943 34.0893 86.7299 33.7961C86.6529 33.4463 86.6305 33.1531 86.5451 32.8283C86.3939 32.2459 86.3295 31.3294 86.5591 30.885C87.056 29.9199 87.9421 29.9159 88.9206 30.3525C89.3629 30.5497 89.1851 30.6628 89.2859 31.1493C89.5729 32.5259 89.8416 33.6804 89.8416 35.1083V35.1096ZM94.1796 31.8501C93.845 31.8764 93.9136 31.9237 93.5777 31.8514C93.1829 31.7659 93.2949 31.6897 92.966 31.6055C92.966 30.5431 93.894 30.3275 94.5267 30.9534C94.3755 31.5608 94.2216 31.3754 94.1796 31.8501ZM95.0474 29.8949L95.4422 29.6135C96.0021 29.3098 96.1575 29.3834 97.1961 29.5872C98.9081 29.9238 98.9655 31.2794 98.2572 31.2794C97.9282 31.2794 96.3745 30.697 95.9391 30.5234L95.6578 30.3801C95.3526 30.2118 95.2812 30.2236 95.0461 29.8949H95.0474ZM93.1395 34.9466C92.5964 34.9886 92.7392 35.0268 92.1135 34.9308C91.3408 34.8138 91.6614 34.8953 91.058 35.0268C91.058 34.7599 91.0021 34.3707 90.9587 34.0604C90.8747 33.4529 90.7613 33.1268 90.7095 32.1762C90.6857 31.7265 90.2476 31.0599 90.8691 30.125C91.1798 29.6569 92.5488 29.486 91.9847 30.1829C91.3366 30.9849 91.2442 31.4017 91.4794 32.4299C91.59 32.9138 91.9553 33.4042 92.2451 33.7474L92.889 34.4456C93.1059 34.6797 93.1115 34.6534 93.1367 34.9453L93.1395 34.9466ZM80.6492 30.384C80.0025 29.1178 80.4672 28.5104 82.21 28.5104C82.3905 28.5104 82.5067 28.5971 82.6089 28.7063C83.4572 29.6096 82.3737 29.3611 81.4779 29.9422C81.1209 30.175 81.1419 30.3459 80.6478 30.3853L80.6492 30.384ZM79.262 26.3106C79.262 25.7518 79.122 24.8183 79.6595 24.4028C79.8905 24.2226 79.8933 24.2739 80.3902 24.2739C80.7906 24.2739 81.1797 25.1956 81.2665 25.569C81.6766 27.3231 82.0854 27.4927 81.0341 27.732C79.9535 27.9778 79.9703 28.3289 79.465 26.7721C79.3614 26.4539 79.262 26.5157 79.262 26.3106ZM78.3073 24.8446C78.3073 26.5959 78.4081 25.7413 78.5439 26.5775C78.6825 27.4335 78.6419 26.9536 78.7763 27.419C78.8938 27.8266 78.7693 27.8924 78.9596 28.3052C79.0982 28.6037 79.038 28.3092 79.0898 28.7536C79.1234 29.0376 79.0884 28.9942 79.1906 29.2296C79.451 29.8278 79.2298 29.5123 79.5587 30.4314L79.9255 31.7173C80.1411 32.3655 80.9235 33.9749 81.0131 34.443L81.2329 35.9472C81.3281 36.6401 81.2707 37.3186 81.3799 38.0102L81.692 42.0349C81.7942 46.0768 83.1436 47.414 83.2682 48.1319C83.6811 50.5092 83.411 51.2573 83.5062 53.3664C83.5244 53.7529 83.614 53.8897 83.8897 54.0645C84.416 54.3959 85.0977 54.4629 85.6842 54.5787C85.9992 54.6418 86.3729 54.6654 86.6459 54.7351C89.3713 55.428 89.0101 56.1183 92.1639 55.5424C93.6379 55.2729 93.8996 54.6115 94.9607 53.8515C96.7328 52.5801 96.2625 52.4236 96.2625 50.6735C96.2625 49.9661 96.2639 49.2588 96.2583 48.5514C96.2555 48.0846 96.2415 47.9794 96.4962 47.7164L98.351 45.6298L99.0005 44.5292C99.6682 43.2407 100.319 41.726 101.093 40.5465C102.619 38.2219 101.292 36.5441 100.871 34.1235C100.481 31.8922 100.362 32.856 100.055 31.386C100.011 31.1782 99.9005 30.9008 99.8431 30.6878C99.7326 30.2683 99.7787 30.4064 99.5212 30.0948C98.022 28.2789 98.1438 28.513 95.5668 28.513C94.6471 28.513 94.4049 28.8798 93.8324 29.1652C93.0163 28.6511 92.8974 28.5945 91.9245 28.5945C90.2672 28.5945 90.256 29.511 89.4483 29.2178C88.1171 28.7339 85.9376 28.8483 85.3945 30.6904C85.3343 30.8955 85.2671 30.9428 85.1999 31.1598C85.1411 31.3478 85.1159 31.5963 85.0725 31.7725C84.3376 30.9797 84.5616 29.8305 83.5608 28.3039C82.6551 26.9207 82.9183 26.8484 82.3121 25.4034C82.2085 25.1575 82.0728 24.5356 81.8726 24.1871C81.3365 23.2483 80.4294 22.8959 79.3684 23.3206C79.1948 23.3903 79.017 23.4981 78.863 23.6612C78.7091 23.8229 78.3059 24.5987 78.3059 24.8485L78.3073 24.8446Z" fill="#FEFEFE"/>
<path d="M116.438 17.7004V16.7836H116.69C116.907 16.7836 117.037 16.7304 117.082 16.624C117.13 16.5141 117.154 16.3784 117.154 16.2171C117.154 16.2068 117.154 16.1295 117.154 15.9853C117.154 15.8376 117.154 15.6505 117.154 15.4239C117.154 15.1938 117.154 14.9431 117.154 14.6719C117.154 14.3972 117.152 14.1259 117.149 13.8581C117.149 13.5868 117.149 13.3396 117.149 13.1164C117.149 12.8898 117.149 12.7095 117.149 12.5756C117.149 12.4382 117.149 12.3695 117.149 12.3695C117.149 12.2288 117.12 12.112 117.061 12.0193C117.006 11.9266 116.883 11.8785 116.69 11.8751C116.67 11.8751 116.629 11.8751 116.567 11.8751C116.508 11.8751 116.465 11.8751 116.438 11.8751V10.9634H119.322C120.785 10.9634 121.875 11.2416 122.593 11.7978C123.311 12.3507 123.669 13.1833 123.669 14.2959C123.669 15.1509 123.494 15.8273 123.144 16.3252C122.797 16.8197 122.306 17.1734 121.671 17.3862C121.036 17.5957 120.291 17.7004 119.436 17.7004H116.438ZM118.838 16.7012H119.58C120.335 16.7012 120.9 16.5106 121.274 16.1295C121.652 15.7449 121.841 15.1268 121.841 14.2753C121.841 13.4718 121.654 12.8863 121.28 12.5189C120.909 12.1481 120.34 11.9626 119.575 11.9626H118.838V16.7012Z" fill="#FEFEFE"/>
<path d="M124.612 17.7004V16.7836H124.993C125.172 16.7836 125.278 16.7252 125.312 16.6085C125.35 16.4918 125.369 16.3561 125.369 16.2016V12.4932C125.369 12.3386 125.354 12.1961 125.323 12.0657C125.295 11.9352 125.185 11.8699 124.993 11.8699H124.633V10.9634H130.499V12.8382H129.495V12.6271C129.495 12.4073 129.464 12.2528 129.402 12.1635C129.344 12.0708 129.261 12.0159 129.155 11.9987C129.048 11.9815 128.921 11.9729 128.774 11.9729H127.048V13.8426H128.063C128.166 13.8426 128.248 13.834 128.31 13.8169C128.372 13.7997 128.422 13.7568 128.459 13.6881C128.497 13.6194 128.528 13.5095 128.552 13.3585H128.99V15.1818H128.547C128.509 14.9586 128.456 14.823 128.387 14.7749C128.322 14.7234 128.214 14.6976 128.063 14.6976H127.048V16.7012H128.846C129.1 16.7012 129.275 16.6549 129.371 16.5621C129.471 16.4694 129.522 16.2411 129.526 15.8771C129.526 15.8634 129.526 15.8359 129.526 15.7947C129.526 15.7535 129.526 15.726 129.526 15.7123H130.52V17.7004H124.612Z" fill="#FEFEFE"/>
<path d="M131.045 17.7004V16.7836C131.21 16.7665 131.335 16.7493 131.421 16.7321C131.51 16.7149 131.581 16.6772 131.632 16.6188C131.684 16.557 131.737 16.4574 131.792 16.3201C131.823 16.2445 131.873 16.1192 131.941 15.9441C132.013 15.7655 132.098 15.5543 132.194 15.3105C132.29 15.0667 132.391 14.8058 132.498 14.5276C132.607 14.2495 132.716 13.9714 132.822 13.6932C132.932 13.4151 133.035 13.1542 133.131 12.9104C133.231 12.6631 133.315 12.4502 133.383 12.2717C133.456 12.0897 133.507 11.9592 133.538 11.8802L133.775 10.9634H135.768C135.768 10.9634 135.797 11.0424 135.856 11.2003C135.914 11.3549 135.991 11.5643 136.088 11.8287C136.184 12.0897 136.29 12.3798 136.407 12.6992C136.527 13.0151 136.647 13.3379 136.767 13.6675C136.891 13.9937 137.006 14.3027 137.113 14.5946C137.219 14.883 137.31 15.1286 137.385 15.3311C137.461 15.5337 137.511 15.6677 137.535 15.7329C137.621 15.9698 137.688 16.1587 137.736 16.2995C137.787 16.4368 137.84 16.5398 137.895 16.6085C137.954 16.6772 138.029 16.7235 138.122 16.7476C138.218 16.7716 138.354 16.7853 138.529 16.7888V17.7004C138.326 17.7004 138.131 17.6987 137.942 17.6953C137.753 17.6918 137.531 17.6901 137.277 17.6901C136.985 17.6901 136.695 17.6918 136.407 17.6953C136.122 17.6953 135.816 17.697 135.49 17.7004V16.8506C135.518 16.8506 135.564 16.8506 135.629 16.8506C135.694 16.8506 135.737 16.8489 135.758 16.8454C135.919 16.8386 136.031 16.8214 136.093 16.7939C136.158 16.763 136.191 16.7149 136.191 16.6497C136.191 16.6085 136.182 16.5587 136.165 16.5003C136.148 16.4385 136.125 16.3681 136.098 16.2892L135.768 15.3157H133.394C133.383 15.3432 133.365 15.3964 133.337 15.4754C133.313 15.5509 133.284 15.6385 133.25 15.738C133.215 15.8342 133.181 15.9321 133.147 16.0316C133.116 16.1278 133.088 16.2119 133.064 16.284C133.044 16.3561 133.03 16.4042 133.023 16.4282C132.989 16.5381 132.971 16.6137 132.971 16.6549C132.971 16.7304 132.995 16.7819 133.044 16.8094C133.092 16.8334 133.169 16.8471 133.275 16.8506C133.296 16.854 133.356 16.8557 133.456 16.8557C133.559 16.8557 133.622 16.8557 133.646 16.8557V17.7004C133.437 17.7004 133.224 17.6987 133.007 17.6953C132.795 17.6918 132.566 17.6901 132.322 17.6901C132.082 17.6901 131.867 17.6918 131.679 17.6953C131.49 17.6953 131.279 17.697 131.045 17.7004ZM133.631 14.6461H135.531L134.609 11.9369L133.631 14.6461Z" fill="#FEFEFE"/>
<path d="M138.812 17.7004V16.7836H139.157C139.346 16.7836 139.472 16.751 139.533 16.6858C139.599 16.6205 139.631 16.454 139.631 16.1861V12.4674C139.631 12.2442 139.609 12.0897 139.564 12.0038C139.523 11.918 139.387 11.8751 139.157 11.8751H138.823V10.9634H144.699V12.8898H143.7V12.6425C143.7 12.4228 143.669 12.2665 143.607 12.1738C143.549 12.0811 143.472 12.0244 143.376 12.0038C143.28 11.9832 143.175 11.9729 143.061 11.9729H141.315V13.8478H142.222C142.335 13.8478 142.428 13.8426 142.5 13.8323C142.572 13.8186 142.627 13.7825 142.665 13.7242C142.703 13.6623 142.728 13.561 142.742 13.4203H143.128V15.1251H142.742C142.718 14.9328 142.67 14.8144 142.598 14.7697C142.526 14.7251 142.406 14.7028 142.237 14.7028H141.315V16.3561C141.315 16.5415 141.353 16.66 141.429 16.7115C141.504 16.7596 141.642 16.7836 141.841 16.7836H142.155V17.7004C141.863 17.7004 141.578 17.7004 141.3 17.7004C141.025 17.697 140.696 17.6936 140.311 17.6901C139.978 17.6901 139.705 17.6918 139.492 17.6953C139.279 17.6987 139.053 17.7004 138.812 17.7004Z" fill="#FEFEFE"/>
<path d="M116.489 30.3086V29.3918H116.695C116.874 29.3918 116.999 29.3712 117.071 29.3299C117.147 29.2853 117.192 29.2201 117.205 29.1342C117.223 29.0484 117.231 28.9419 117.231 28.8149V25.0807C117.231 24.9468 117.223 24.8369 117.205 24.751C117.192 24.6618 117.147 24.5965 117.071 24.5553C116.996 24.5107 116.871 24.4884 116.695 24.4884H116.489V23.5716C116.798 23.575 117.058 23.5784 117.267 23.5819C117.48 23.5819 117.686 23.5819 117.885 23.5819C118.16 23.5819 118.395 23.5819 118.591 23.5819C118.79 23.5819 118.972 23.5819 119.137 23.5819C119.305 23.5784 119.48 23.575 119.662 23.5716V24.4884H119.446C119.285 24.4884 119.166 24.509 119.09 24.5502C119.015 24.5879 118.967 24.6446 118.946 24.7201C118.926 24.7922 118.915 24.8781 118.915 24.9777V28.923C118.915 29.0467 118.924 29.1428 118.941 29.2115C118.958 29.2767 119.003 29.3231 119.075 29.3505C119.151 29.378 119.274 29.3918 119.446 29.3918H119.662V30.3086C119.408 30.3086 119.161 30.3068 118.921 30.3034C118.684 30.3 118.395 30.2983 118.055 30.2983C117.739 30.2983 117.459 30.3 117.216 30.3034C116.975 30.3068 116.733 30.3086 116.489 30.3086Z" fill="#FEFEFE"/>
<path d="M125.287 30.3807L122.191 25.2198C122.188 25.2198 122.184 25.2198 122.181 25.2198V28.9385C122.181 29.148 122.213 29.2767 122.279 29.3248C122.344 29.3694 122.49 29.3918 122.717 29.3918H122.969V30.3086C122.773 30.3086 122.574 30.3068 122.371 30.3034C122.172 30.3 121.941 30.2983 121.676 30.2983C121.384 30.2983 121.135 30.3 120.929 30.3034C120.727 30.3068 120.515 30.3086 120.296 30.3086V29.3918H120.564C120.732 29.3918 120.85 29.3712 120.919 29.3299C120.988 29.2853 121.027 29.2201 121.037 29.1342C121.051 29.0484 121.058 28.9385 121.058 28.8046V25.0086C121.058 24.806 121.034 24.6686 120.986 24.5965C120.941 24.5244 120.804 24.4884 120.574 24.4884H120.306C120.306 24.4746 120.306 24.4231 120.306 24.3338C120.306 24.2446 120.306 24.1433 120.306 24.03C120.306 23.9166 120.306 23.8153 120.306 23.7261C120.306 23.6368 120.306 23.5853 120.306 23.5716C120.306 23.5716 120.371 23.5716 120.502 23.5716C120.636 23.5716 120.79 23.5716 120.965 23.5716C121.14 23.5716 121.297 23.5716 121.434 23.5716C121.575 23.5716 121.654 23.5716 121.671 23.5716C121.702 23.5716 121.776 23.5716 121.892 23.5716C122.009 23.5716 122.138 23.5716 122.279 23.5716C122.423 23.5716 122.553 23.5716 122.67 23.5716C122.79 23.5716 122.866 23.5716 122.897 23.5716C122.897 23.5716 122.95 23.6608 123.056 23.8394C123.163 24.0179 123.304 24.2549 123.479 24.5502C123.654 24.8455 123.846 25.17 124.056 25.5236C124.269 25.8739 124.48 26.2258 124.689 26.5795C124.899 26.9332 125.091 27.2577 125.266 27.553C125.441 27.8483 125.582 28.0852 125.688 28.2638C125.795 28.4423 125.848 28.5316 125.848 28.5316V24.921C125.848 24.7287 125.814 24.6085 125.745 24.5605C125.68 24.5124 125.541 24.4884 125.328 24.4884H125.091V23.5716C125.345 23.5716 125.575 23.5733 125.781 23.5767C125.987 23.5801 126.174 23.5819 126.343 23.5819C126.394 23.5819 126.492 23.5819 126.636 23.5819C126.78 23.5784 126.935 23.5767 127.1 23.5767C127.268 23.5767 127.41 23.5767 127.527 23.5767C127.647 23.5733 127.707 23.5716 127.707 23.5716V24.4884H127.445C127.215 24.4884 127.079 24.5382 127.038 24.6377C127 24.7339 126.981 24.8626 126.981 25.024C126.981 25.0309 126.981 25.1339 126.981 25.3331C126.981 25.5288 126.981 25.7863 126.981 26.1057C126.981 26.425 126.981 26.7752 126.981 27.1564C126.981 27.5341 126.981 27.9135 126.981 28.2947C126.981 28.6724 126.981 29.0192 126.981 29.3351C126.981 29.6476 126.981 29.9 126.981 30.0922C126.981 30.2845 126.981 30.3807 126.981 30.3807H125.287Z" fill="#FEFEFE"/>
<path d="M132.106 30.4425C131.272 30.4425 130.592 30.2862 130.066 29.9738C129.541 29.6613 129.155 29.2407 128.908 28.7119C128.664 28.1831 128.542 27.5925 128.542 26.9401C128.542 26.2567 128.678 25.6524 128.949 25.127C129.223 24.6017 129.613 24.1896 130.118 23.8909C130.626 23.5922 131.232 23.4428 131.936 23.4428C132.255 23.4428 132.58 23.496 132.91 23.6025C133.239 23.7055 133.495 23.848 133.677 24.03L133.703 23.587H134.846V25.6988H133.79C133.766 25.3107 133.626 25.0051 133.368 24.7819C133.11 24.5553 132.743 24.442 132.266 24.442C131.878 24.442 131.545 24.5364 131.267 24.7253C130.988 24.9107 130.774 25.1888 130.623 25.5597C130.475 25.9271 130.401 26.3821 130.401 26.9246C130.401 27.4534 130.475 27.9067 130.623 28.2844C130.774 28.6586 130.99 28.9454 131.272 29.1445C131.553 29.3437 131.89 29.4433 132.281 29.4433C132.807 29.4433 133.201 29.3265 133.466 29.093C133.734 28.8595 133.881 28.4543 133.909 27.8775L134.96 28.1041L134.882 29.6699C134.481 29.9412 134.05 30.1386 133.589 30.2622C133.129 30.3824 132.635 30.4425 132.106 30.4425Z" fill="#FEFEFE"/>
<path d="M135.768 30.3086V29.3918H136.01C136.179 29.3918 136.297 29.366 136.366 29.3145C136.438 29.263 136.482 29.1926 136.5 29.1033C136.517 29.014 136.525 28.9145 136.525 28.8046V25.2146C136.525 25.1837 136.525 25.1511 136.525 25.1167C136.525 25.0824 136.525 25.0481 136.525 25.0137C136.525 24.8729 136.498 24.751 136.443 24.648C136.388 24.5416 136.244 24.4884 136.01 24.4884H135.768V23.5716C135.803 23.5716 135.895 23.5733 136.046 23.5767C136.201 23.5801 136.366 23.5836 136.541 23.587C136.719 23.587 136.862 23.587 136.968 23.587C137.298 23.587 137.621 23.5853 137.937 23.5819C138.253 23.5784 138.617 23.575 139.029 23.5716V24.4884H138.694C138.539 24.4884 138.428 24.5175 138.359 24.5759C138.294 24.6343 138.253 24.7081 138.235 24.7974C138.218 24.8867 138.21 24.9794 138.21 25.0755V29.2939H139.873C140.138 29.2939 140.296 29.1857 140.347 28.9694C140.399 28.7496 140.426 28.4337 140.43 28.0217H141.372V30.3086H135.768Z" fill="#FEFEFE"/>
<path d="M145.225 30.4425C144.576 30.4425 144.049 30.3463 143.644 30.154C143.238 29.9583 142.941 29.663 142.752 29.2681C142.567 28.8733 142.474 28.3736 142.474 27.7693V24.885C142.474 24.806 142.452 24.7201 142.407 24.6274C142.363 24.5347 142.234 24.4884 142.021 24.4884H141.8V23.5716C141.872 23.5716 141.988 23.5733 142.15 23.5767C142.315 23.5801 142.49 23.5836 142.675 23.587C142.861 23.587 143.017 23.587 143.144 23.587C143.408 23.587 143.671 23.5853 143.932 23.5819C144.193 23.5784 144.488 23.575 144.818 23.5716V24.4884H144.648C144.486 24.4884 144.37 24.5158 144.298 24.5708C144.226 24.6257 144.181 24.6978 144.164 24.7871C144.15 24.8729 144.143 24.9657 144.143 25.0652V27.7487C144.143 28.1127 144.183 28.4217 144.262 28.6758C144.341 28.9265 144.478 29.1171 144.674 29.2475C144.873 29.378 145.149 29.4433 145.503 29.4433C145.826 29.4433 146.075 29.3832 146.25 29.263C146.428 29.1394 146.552 28.9574 146.621 28.717C146.693 28.4732 146.729 28.1728 146.729 27.8157V25.024C146.729 24.9382 146.72 24.8541 146.703 24.7716C146.686 24.6892 146.641 24.6223 146.569 24.5708C146.497 24.5158 146.377 24.4884 146.209 24.4884H146.023V23.5716C146.085 23.575 146.2 23.5784 146.368 23.5819C146.54 23.5819 146.722 23.5819 146.914 23.5819C147.11 23.5819 147.273 23.5819 147.403 23.5819C147.479 23.5819 147.582 23.5819 147.712 23.5819C147.843 23.5784 147.985 23.5767 148.14 23.5767C148.298 23.5733 148.451 23.5716 148.598 23.5716V24.4884H148.356C148.198 24.4884 148.088 24.521 148.027 24.5862C147.968 24.6515 147.936 24.7304 147.929 24.8232C147.922 24.9124 147.919 24.9931 147.919 25.0652V27.7333C147.919 28.6226 147.711 29.2973 147.295 29.7574C146.883 30.2141 146.193 30.4425 145.225 30.4425Z" fill="#FEFEFE"/>
<path d="M152.26 30.4425C151.917 30.4425 151.582 30.3858 151.256 30.2725C150.933 30.1592 150.669 30.003 150.463 29.8038V30.3086C150.339 30.3086 150.193 30.3086 150.025 30.3086C149.857 30.3086 149.706 30.3086 149.572 30.3086C149.441 30.3086 149.362 30.3086 149.335 30.3086V28.2174H150.324C150.334 28.2621 150.344 28.305 150.355 28.3462C150.365 28.3874 150.375 28.4269 150.386 28.4646C150.454 28.8115 150.595 29.081 150.808 29.2733C151.024 29.4621 151.361 29.5566 151.818 29.5566C152.168 29.5566 152.449 29.4776 152.662 29.3196C152.875 29.1583 152.982 28.9316 152.982 28.6398C152.982 28.444 152.923 28.2792 152.806 28.1453C152.69 28.0114 152.532 27.8964 152.333 27.8002C152.137 27.7041 151.917 27.6131 151.673 27.5272C151.433 27.4414 151.187 27.347 150.937 27.2439C150.394 27.0208 149.991 26.7581 149.726 26.4559C149.465 26.1537 149.335 25.788 149.335 25.3588C149.335 24.9983 149.424 24.6738 149.603 24.3853C149.781 24.0935 150.039 23.8634 150.375 23.6952C150.712 23.5269 151.117 23.4428 151.591 23.4428C151.897 23.4428 152.2 23.4806 152.503 23.5561C152.808 23.6316 153.091 23.7741 153.352 23.9836C153.352 23.8909 153.351 23.7982 153.347 23.7055C153.347 23.6128 153.347 23.5664 153.347 23.5664C153.375 23.5664 153.443 23.5664 153.553 23.5664C153.667 23.5664 153.794 23.5681 153.934 23.5716C154.075 23.5716 154.201 23.5716 154.31 23.5716V25.4515H153.322C153.308 25.4069 153.296 25.364 153.285 25.3228C153.279 25.2816 153.27 25.2404 153.26 25.1991C153.201 24.8935 153.071 24.6601 152.868 24.4987C152.666 24.3338 152.358 24.2514 151.946 24.2514C151.613 24.2514 151.347 24.3304 151.148 24.4884C150.952 24.6429 150.854 24.8472 150.854 25.1013C150.854 25.297 150.913 25.4601 151.029 25.5906C151.15 25.7176 151.313 25.831 151.519 25.9305C151.728 26.0267 151.969 26.1228 152.24 26.219C152.511 26.3151 152.798 26.4284 153.1 26.5589C153.364 26.6688 153.607 26.8061 153.826 26.971C154.049 27.1323 154.228 27.3332 154.362 27.5736C154.496 27.8105 154.563 28.0989 154.563 28.4389C154.563 28.7994 154.47 29.1325 154.285 29.4381C154.099 29.7403 153.835 29.9841 153.491 30.1695C153.148 30.3515 152.738 30.4425 152.26 30.4425Z" fill="#FEFEFE"/>
<path d="M155.397 30.3086V29.3918H155.603C155.782 29.3918 155.907 29.3712 155.979 29.3299C156.055 29.2853 156.099 29.2201 156.113 29.1342C156.13 29.0484 156.139 28.9419 156.139 28.8149V25.0807C156.139 24.9468 156.13 24.8369 156.113 24.751C156.099 24.6618 156.055 24.5965 155.979 24.5553C155.904 24.5107 155.778 24.4884 155.603 24.4884H155.397V23.5716C155.706 23.575 155.966 23.5784 156.175 23.5819C156.388 23.5819 156.594 23.5819 156.793 23.5819C157.068 23.5819 157.303 23.5819 157.499 23.5819C157.698 23.5819 157.88 23.5819 158.045 23.5819C158.213 23.5784 158.388 23.575 158.57 23.5716V24.4884H158.354C158.192 24.4884 158.074 24.509 157.998 24.5502C157.923 24.5879 157.875 24.6446 157.854 24.7201C157.833 24.7922 157.823 24.8781 157.823 24.9777V28.923C157.823 29.0467 157.832 29.1428 157.849 29.2115C157.866 29.2767 157.911 29.3231 157.983 29.3505C158.058 29.378 158.182 29.3918 158.354 29.3918H158.57V30.3086C158.316 30.3086 158.069 30.3068 157.828 30.3034C157.591 30.3 157.303 30.2983 156.963 30.2983C156.647 30.2983 156.367 30.3 156.123 30.3034C155.883 30.3068 155.641 30.3086 155.397 30.3086Z" fill="#FEFEFE"/>
<path d="M163.015 30.4425C162.256 30.4425 161.611 30.288 161.078 29.9789C160.546 29.6699 160.141 29.251 159.863 28.7222C159.588 28.1934 159.451 27.5976 159.451 26.9349C159.451 26.2791 159.586 25.6885 159.858 25.1631C160.132 24.6343 160.532 24.2154 161.058 23.9063C161.587 23.5973 162.234 23.4428 163 23.4428C163.755 23.4428 164.395 23.5973 164.921 23.9063C165.446 24.2154 165.846 24.6343 166.121 25.1631C166.396 25.6885 166.533 26.2791 166.533 26.9349C166.533 27.5873 166.396 28.1796 166.121 28.7119C165.85 29.2407 165.451 29.6613 164.926 29.9738C164.404 30.2862 163.767 30.4425 163.015 30.4425ZM162.994 29.4433C163.571 29.4433 163.994 29.2218 164.261 28.7788C164.533 28.3324 164.668 27.7161 164.668 26.9298C164.668 26.1263 164.531 25.5116 164.256 25.0858C163.982 24.6566 163.561 24.442 162.994 24.442C162.404 24.442 161.976 24.6635 161.712 25.1064C161.451 25.546 161.32 26.152 161.32 26.9246C161.32 27.7247 161.458 28.3445 161.732 28.784C162.007 29.2235 162.428 29.4433 162.994 29.4433Z" fill="#FEFEFE"/>
<path d="M172.312 30.3807L169.216 25.2198C169.213 25.2198 169.209 25.2198 169.206 25.2198V28.9385C169.206 29.148 169.239 29.2767 169.304 29.3248C169.369 29.3694 169.515 29.3918 169.742 29.3918H169.994V30.3086C169.798 30.3086 169.599 30.3068 169.397 30.3034C169.197 30.3 168.966 30.2983 168.701 30.2983C168.409 30.2983 168.16 30.3 167.954 30.3034C167.752 30.3068 167.541 30.3086 167.321 30.3086V29.3918H167.589C167.757 29.3918 167.875 29.3712 167.944 29.3299C168.013 29.2853 168.052 29.2201 168.063 29.1342C168.076 29.0484 168.083 28.9385 168.083 28.8046V25.0086C168.083 24.806 168.059 24.6686 168.011 24.5965C167.966 24.5244 167.829 24.4884 167.599 24.4884H167.331C167.331 24.4746 167.331 24.4231 167.331 24.3338C167.331 24.2446 167.331 24.1433 167.331 24.03C167.331 23.9166 167.331 23.8153 167.331 23.7261C167.331 23.6368 167.331 23.5853 167.331 23.5716C167.331 23.5716 167.396 23.5716 167.527 23.5716C167.661 23.5716 167.815 23.5716 167.99 23.5716C168.166 23.5716 168.322 23.5716 168.459 23.5716C168.6 23.5716 168.679 23.5716 168.696 23.5716C168.727 23.5716 168.801 23.5716 168.918 23.5716C169.034 23.5716 169.163 23.5716 169.304 23.5716C169.448 23.5716 169.579 23.5716 169.695 23.5716C169.816 23.5716 169.891 23.5716 169.922 23.5716C169.922 23.5716 169.975 23.6608 170.082 23.8394C170.188 24.0179 170.329 24.2549 170.504 24.5502C170.679 24.8455 170.871 25.17 171.081 25.5236C171.294 25.8739 171.505 26.2258 171.714 26.5795C171.924 26.9332 172.116 27.2577 172.291 27.553C172.466 27.8483 172.607 28.0852 172.714 28.2638C172.82 28.4423 172.873 28.5316 172.873 28.5316V24.921C172.873 24.7287 172.839 24.6085 172.77 24.5605C172.705 24.5124 172.566 24.4884 172.353 24.4884H172.116V23.5716C172.37 23.5716 172.6 23.5733 172.806 23.5767C173.012 23.5801 173.199 23.5819 173.368 23.5819C173.419 23.5819 173.517 23.5819 173.661 23.5819C173.806 23.5784 173.96 23.5767 174.125 23.5767C174.293 23.5767 174.436 23.5767 174.552 23.5767C174.673 23.5733 174.733 23.5716 174.733 23.5716V24.4884H174.47C174.24 24.4884 174.104 24.5382 174.063 24.6377C174.025 24.7339 174.006 24.8626 174.006 25.024C174.006 25.0309 174.006 25.1339 174.006 25.3331C174.006 25.5288 174.006 25.7863 174.006 26.1057C174.006 26.425 174.006 26.7752 174.006 27.1564C174.006 27.5341 174.006 27.9135 174.006 28.2947C174.006 28.6724 174.006 29.0192 174.006 29.3351C174.006 29.6476 174.006 29.9 174.006 30.0922C174.006 30.2845 174.006 30.3807 174.006 30.3807H172.312Z" fill="#FEFEFE"/>
<path d="M177.535 30.3086V29.3918C177.699 29.3746 177.825 29.3574 177.911 29.3402C178 29.3231 178.07 29.2853 178.122 29.2269C178.173 29.1651 178.227 29.0655 178.281 28.9282C178.312 28.8527 178.362 28.7273 178.431 28.5522C178.503 28.3736 178.587 28.1625 178.683 27.9187C178.779 27.6749 178.881 27.4139 178.987 27.1358C179.097 26.8576 179.205 26.5795 179.312 26.3014C179.421 26.0232 179.524 25.7623 179.621 25.5185C179.72 25.2713 179.804 25.0584 179.873 24.8798C179.945 24.6978 179.997 24.5673 180.027 24.4884L180.264 23.5716H182.258C182.258 23.5716 182.287 23.6505 182.345 23.8085C182.404 23.963 182.481 24.1725 182.577 24.4369C182.673 24.6978 182.78 24.988 182.896 25.3073C183.017 25.6232 183.137 25.946 183.257 26.2756C183.381 26.6018 183.496 26.9109 183.602 27.2027C183.708 27.4912 183.799 27.7367 183.875 27.9393C183.951 28.1419 184 28.2758 184.024 28.341C184.11 28.578 184.177 28.7668 184.225 28.9076C184.277 29.0449 184.33 29.148 184.385 29.2166C184.443 29.2853 184.519 29.3317 184.612 29.3557C184.708 29.3797 184.843 29.3935 185.018 29.3969V30.3086C184.816 30.3086 184.62 30.3068 184.431 30.3034C184.242 30.3 184.021 30.2983 183.767 30.2983C183.475 30.2983 183.185 30.3 182.896 30.3034C182.611 30.3034 182.306 30.3051 181.98 30.3086V29.4587C182.007 29.4587 182.053 29.4587 182.119 29.4587C182.184 29.4587 182.227 29.457 182.247 29.4536C182.409 29.4467 182.52 29.4295 182.582 29.4021C182.647 29.3712 182.68 29.3231 182.68 29.2578C182.68 29.2166 182.671 29.1668 182.654 29.1085C182.637 29.0467 182.615 28.9763 182.587 28.8973L182.258 27.9238H179.883C179.873 27.9513 179.854 28.0045 179.827 28.0835C179.803 28.159 179.773 28.2466 179.739 28.3462C179.705 28.4423 179.67 28.5402 179.636 28.6398C179.605 28.7359 179.578 28.82 179.554 28.8921C179.533 28.9643 179.519 29.0123 179.512 29.0364C179.478 29.1462 179.461 29.2218 179.461 29.263C179.461 29.3385 179.485 29.39 179.533 29.4175C179.581 29.4415 179.658 29.4553 179.765 29.4587C179.785 29.4621 179.846 29.4639 179.945 29.4639C180.048 29.4639 180.112 29.4639 180.136 29.4639V30.3086C179.926 30.3086 179.713 30.3068 179.497 30.3034C179.284 30.3 179.056 30.2983 178.812 30.2983C178.572 30.2983 178.357 30.3 178.168 30.3034C177.979 30.3034 177.768 30.3051 177.535 30.3086ZM180.12 27.2542H182.021L181.099 24.545L180.12 27.2542Z" fill="#FEFEFE"/>
<path d="M190.288 30.3807L187.192 25.2198C187.189 25.2198 187.185 25.2198 187.182 25.2198V28.9385C187.182 29.148 187.214 29.2767 187.28 29.3248C187.345 29.3694 187.491 29.3918 187.717 29.3918H187.97V30.3086C187.774 30.3086 187.575 30.3068 187.372 30.3034C187.173 30.3 186.941 30.2983 186.677 30.2983C186.385 30.2983 186.136 30.3 185.93 30.3034C185.728 30.3068 185.516 30.3086 185.297 30.3086V29.3918H185.564C185.733 29.3918 185.851 29.3712 185.92 29.3299C185.988 29.2853 186.028 29.2201 186.038 29.1342C186.052 29.0484 186.059 28.9385 186.059 28.8046V25.0086C186.059 24.806 186.035 24.6686 185.987 24.5965C185.942 24.5244 185.805 24.4884 185.575 24.4884H185.307C185.307 24.4746 185.307 24.4231 185.307 24.3338C185.307 24.2446 185.307 24.1433 185.307 24.03C185.307 23.9166 185.307 23.8153 185.307 23.7261C185.307 23.6368 185.307 23.5853 185.307 23.5716C185.307 23.5716 185.372 23.5716 185.503 23.5716C185.637 23.5716 185.791 23.5716 185.966 23.5716C186.141 23.5716 186.298 23.5716 186.435 23.5716C186.576 23.5716 186.655 23.5716 186.672 23.5716C186.703 23.5716 186.777 23.5716 186.893 23.5716C187.01 23.5716 187.139 23.5716 187.28 23.5716C187.424 23.5716 187.554 23.5716 187.671 23.5716C187.791 23.5716 187.867 23.5716 187.898 23.5716C187.898 23.5716 187.951 23.6608 188.057 23.8394C188.164 24.0179 188.305 24.2549 188.48 24.5502C188.655 24.8455 188.847 25.17 189.057 25.5236C189.269 25.8739 189.481 26.2258 189.69 26.5795C189.9 26.9332 190.092 27.2577 190.267 27.553C190.442 27.8483 190.583 28.0852 190.689 28.2638C190.796 28.4423 190.849 28.5316 190.849 28.5316V24.921C190.849 24.7287 190.815 24.6085 190.746 24.5605C190.681 24.5124 190.542 24.4884 190.329 24.4884H190.092V23.5716C190.346 23.5716 190.576 23.5733 190.782 23.5767C190.988 23.5801 191.175 23.5819 191.343 23.5819C191.395 23.5819 191.493 23.5819 191.637 23.5819C191.781 23.5784 191.936 23.5767 192.101 23.5767C192.269 23.5767 192.411 23.5767 192.528 23.5767C192.648 23.5733 192.708 23.5716 192.708 23.5716V24.4884H192.446C192.216 24.4884 192.08 24.5382 192.039 24.6377C192.001 24.7339 191.982 24.8626 191.982 25.024C191.982 25.0309 191.982 25.1339 191.982 25.3331C191.982 25.5288 191.982 25.7863 191.982 26.1057C191.982 26.425 191.982 26.7752 191.982 27.1564C191.982 27.5341 191.982 27.9135 191.982 28.2947C191.982 28.6724 191.982 29.0192 191.982 29.3351C191.982 29.6476 191.982 29.9 191.982 30.0922C191.982 30.2845 191.982 30.3807 191.982 30.3807H190.288Z" fill="#FEFEFE"/>
<path d="M193.316 30.3086V29.3918H193.568C193.785 29.3918 193.915 29.3385 193.96 29.2321C194.008 29.1222 194.032 28.9866 194.032 28.8252C194.032 28.8149 194.032 28.7376 194.032 28.5934C194.032 28.4458 194.032 28.2586 194.032 28.032C194.032 27.8019 194.032 27.5513 194.032 27.28C194.032 27.0053 194.03 26.734 194.027 26.4662C194.027 26.1949 194.027 25.9477 194.027 25.7245C194.027 25.4979 194.027 25.3176 194.027 25.1837C194.027 25.0463 194.027 24.9777 194.027 24.9777C194.027 24.8369 193.998 24.7201 193.939 24.6274C193.884 24.5347 193.761 24.4866 193.568 24.4832C193.548 24.4832 193.507 24.4832 193.445 24.4832C193.386 24.4832 193.344 24.4832 193.316 24.4832V23.5716H196.2C197.663 23.5716 198.753 23.8497 199.471 24.406C200.189 24.9588 200.548 25.7915 200.548 26.904C200.548 27.759 200.372 28.4355 200.022 28.9333C199.675 29.4278 199.184 29.7815 198.549 29.9944C197.914 30.2038 197.169 30.3086 196.314 30.3086H193.316ZM195.716 29.3093H196.458C197.213 29.3093 197.778 29.1188 198.153 28.7376C198.53 28.353 198.719 27.735 198.719 26.8834C198.719 26.0799 198.532 25.4945 198.158 25.127C197.787 24.7562 197.219 24.5708 196.453 24.5708H195.716V29.3093Z" fill="#FEFEFE"/>
<path d="M116.438 42.9167V41.9999H116.69C116.907 41.9999 117.037 41.9467 117.082 41.8402C117.13 41.7303 117.154 41.5947 117.154 41.4333C117.154 41.423 117.154 41.3458 117.154 41.2015C117.154 41.0539 117.154 40.8667 117.154 40.6401C117.154 40.4101 117.154 40.1594 117.154 39.8881C117.154 39.6134 117.152 39.3422 117.149 39.0743C117.149 38.8031 117.149 38.5558 117.149 38.3326C117.149 38.106 117.149 37.9257 117.149 37.7918C117.149 37.6545 117.149 37.5858 117.149 37.5858C117.149 37.445 117.12 37.3283 117.061 37.2356C117.006 37.1428 116.883 37.0948 116.69 37.0913C116.67 37.0913 116.629 37.0913 116.567 37.0913C116.508 37.0913 116.465 37.0913 116.438 37.0913V36.1797H119.322C120.785 36.1797 121.875 36.4578 122.593 37.0141C123.311 37.5669 123.669 38.3996 123.669 39.5121C123.669 40.3671 123.494 41.0436 123.144 41.5415C122.797 42.0359 122.306 42.3896 121.671 42.6025C121.036 42.812 120.291 42.9167 119.436 42.9167H116.438ZM118.838 41.9175H119.58C120.335 41.9175 120.9 41.7269 121.274 41.3458C121.652 40.9612 121.841 40.3431 121.841 39.4915C121.841 38.688 121.654 38.1026 121.28 37.7352C120.909 37.3643 120.34 37.1789 119.575 37.1789H118.838V41.9175Z" fill="#FEFEFE"/>
<path d="M124.612 42.9167V41.9999H124.993C125.172 41.9999 125.278 41.9415 125.312 41.8248C125.35 41.708 125.369 41.5724 125.369 41.4179V37.7094C125.369 37.5549 125.354 37.4124 125.323 37.2819C125.295 37.1514 125.185 37.0862 124.993 37.0862H124.633V36.1797H130.499V38.0545H129.495V37.8433C129.495 37.6236 129.464 37.4691 129.402 37.3798C129.344 37.2871 129.261 37.2321 129.155 37.215C129.048 37.1978 128.921 37.1892 128.774 37.1892H127.048V39.0589H128.063C128.166 39.0589 128.248 39.0503 128.31 39.0331C128.372 39.016 128.422 38.973 128.459 38.9044C128.497 38.8357 128.528 38.7258 128.552 38.5747H128.99V40.398H128.547C128.509 40.1748 128.456 40.0392 128.387 39.9911C128.322 39.9396 128.214 39.9139 128.063 39.9139H127.048V41.9175H128.846C129.1 41.9175 129.275 41.8711 129.371 41.7784C129.471 41.6857 129.522 41.4574 129.526 41.0934C129.526 41.0796 129.526 41.0522 129.526 41.011C129.526 40.9698 129.526 40.9423 129.526 40.9286H130.52V42.9167H124.612Z" fill="#FEFEFE"/>
<path d="M133.94 42.994L131.859 37.8124C131.797 37.6579 131.739 37.5274 131.684 37.421C131.629 37.3145 131.553 37.2338 131.457 37.1789C131.364 37.124 131.231 37.0965 131.055 37.0965V36.1797C131.093 36.1797 131.176 36.1814 131.303 36.1848C131.433 36.1883 131.572 36.1917 131.72 36.1951C131.871 36.1951 131.996 36.1951 132.096 36.1951C132.185 36.1951 132.333 36.1951 132.539 36.1951C132.748 36.1917 132.968 36.19 133.198 36.19C133.428 36.1866 133.626 36.1848 133.79 36.1848C133.955 36.1814 134.038 36.1797 134.038 36.1797V37.0965C133.838 37.0999 133.67 37.1119 133.533 37.1325C133.399 37.1531 133.332 37.2253 133.332 37.3489C133.332 37.4072 133.346 37.4725 133.373 37.5446C133.387 37.5824 133.421 37.6785 133.476 37.833C133.535 37.9875 133.607 38.1816 133.693 38.4151C133.782 38.6451 133.876 38.8958 133.976 39.167C134.079 39.4349 134.182 39.7044 134.285 39.9757C134.388 40.2435 134.482 40.4942 134.568 40.7277C134.657 40.9577 134.731 41.15 134.79 41.3046C134.848 41.4556 134.884 41.5501 134.898 41.5878L136.335 37.5601C136.352 37.5051 136.366 37.457 136.376 37.4158C136.39 37.3746 136.397 37.3403 136.397 37.3128C136.397 37.227 136.355 37.172 136.273 37.148C136.194 37.1205 136.069 37.1051 135.897 37.1016C135.883 37.1016 135.849 37.1016 135.794 37.1016C135.739 37.1016 135.703 37.0999 135.686 37.0965V36.1797C135.686 36.1797 135.741 36.1814 135.851 36.1848C135.96 36.1848 136.093 36.1848 136.247 36.1848C136.402 36.1848 136.549 36.1866 136.69 36.19C136.831 36.19 136.932 36.19 136.994 36.19C137.19 36.19 137.389 36.19 137.592 36.19C137.794 36.1866 138.016 36.1831 138.256 36.1797V37.0965C138.112 37.0965 137.993 37.1188 137.901 37.1634C137.808 37.2081 137.727 37.2802 137.658 37.3798C137.593 37.4759 137.528 37.6064 137.463 37.7712C137.398 37.9326 137.32 38.1335 137.231 38.3738L135.49 42.994H133.94Z" fill="#FEFEFE"/>
<path d="M138.622 42.9167V41.9999H139.003C139.181 41.9999 139.288 41.9415 139.322 41.8248C139.36 41.708 139.379 41.5724 139.379 41.4179V37.7094C139.379 37.5549 139.363 37.4124 139.332 37.2819C139.305 37.1514 139.195 37.0862 139.003 37.0862H138.642V36.1797H144.509V38.0545H143.504V37.8433C143.504 37.6236 143.474 37.4691 143.412 37.3798C143.353 37.2871 143.271 37.2321 143.165 37.215C143.058 37.1978 142.931 37.1892 142.783 37.1892H141.058V39.0589H142.073C142.176 39.0589 142.258 39.0503 142.32 39.0331C142.382 39.016 142.431 38.973 142.469 38.9044C142.507 38.8357 142.538 38.7258 142.562 38.5747H143V40.398H142.557C142.519 40.1748 142.466 40.0392 142.397 39.9911C142.332 39.9396 142.224 39.9139 142.073 39.9139H141.058V41.9175H142.855C143.11 41.9175 143.285 41.8711 143.381 41.7784C143.48 41.6857 143.532 41.4574 143.535 41.0934C143.535 41.0796 143.535 41.0522 143.535 41.011C143.535 40.9698 143.535 40.9423 143.535 40.9286H144.529V42.9167H138.622Z" fill="#FEFEFE"/>
<path d="M145.39 42.9167V41.9999H145.632C145.8 41.9999 145.918 41.9741 145.987 41.9226C146.059 41.8711 146.104 41.8007 146.121 41.7114C146.138 41.6222 146.147 41.5226 146.147 41.4127V37.8227C146.147 37.7918 146.147 37.7592 146.147 37.7249C146.147 37.6905 146.147 37.6562 146.147 37.6219C146.147 37.4811 146.119 37.3592 146.064 37.2562C146.009 37.1497 145.865 37.0965 145.632 37.0965H145.39V36.1797C145.424 36.1797 145.517 36.1814 145.668 36.1848C145.822 36.1883 145.987 36.1917 146.162 36.1951C146.341 36.1951 146.483 36.1951 146.59 36.1951C146.919 36.1951 147.242 36.1934 147.558 36.19C147.874 36.1866 148.238 36.1831 148.65 36.1797V37.0965H148.315C148.161 37.0965 148.049 37.1257 147.98 37.1841C147.915 37.2424 147.874 37.3163 147.857 37.4055C147.84 37.4948 147.831 37.5875 147.831 37.6837V41.902H149.495C149.759 41.902 149.917 41.7939 149.968 41.5775C150.02 41.3578 150.047 41.0419 150.051 40.6298H150.993V42.9167H145.39Z" fill="#FEFEFE"/>
<path d="M155.258 43.0506C154.499 43.0506 153.854 42.8961 153.322 42.5871C152.789 42.278 152.384 41.8591 152.106 41.3303C151.831 40.8015 151.694 40.2057 151.694 39.543C151.694 38.8872 151.83 38.2966 152.101 37.7712C152.376 37.2424 152.776 36.8235 153.301 36.5145C153.83 36.2054 154.477 36.0509 155.243 36.0509C155.998 36.0509 156.639 36.2054 157.164 36.5145C157.689 36.8235 158.089 37.2424 158.364 37.7712C158.639 38.2966 158.776 38.8872 158.776 39.543C158.776 40.1954 158.639 40.7878 158.364 41.32C158.093 41.8488 157.694 42.2694 157.169 42.5819C156.647 42.8944 156.01 43.0506 155.258 43.0506ZM155.238 42.0514C155.814 42.0514 156.237 41.8299 156.505 41.387C156.776 40.9406 156.912 40.3242 156.912 39.5379C156.912 38.7344 156.774 38.1197 156.499 37.694C156.225 37.2647 155.804 37.0501 155.238 37.0501C154.647 37.0501 154.219 37.2716 153.955 37.7146C153.694 38.1541 153.564 38.7601 153.564 39.5327C153.564 40.3328 153.701 40.9526 153.976 41.3921C154.25 41.8316 154.671 42.0514 155.238 42.0514Z" fill="#FEFEFE"/>
<path d="M159.652 42.9167V41.9999H159.909C160.081 41.9999 160.204 41.9861 160.28 41.9587C160.356 41.9278 160.402 41.8711 160.419 41.7887C160.44 41.7029 160.45 41.5758 160.45 41.4076V37.6579C160.45 37.4965 160.426 37.3643 160.378 37.2613C160.33 37.1549 160.182 37.0999 159.935 37.0965C159.918 37.0965 159.871 37.0965 159.796 37.0965C159.724 37.0965 159.676 37.0965 159.652 37.0965V36.1797H163.18C163.853 36.1797 164.394 36.2638 164.802 36.4321C165.211 36.6003 165.508 36.8355 165.693 37.1377C165.882 37.4364 165.977 37.7832 165.977 38.1781C165.977 38.5661 165.891 38.9078 165.719 39.2031C165.547 39.4984 165.257 39.7285 164.849 39.8933C164.44 40.0581 163.879 40.1405 163.164 40.1405H162.139V41.5106C162.139 41.7303 162.174 41.8677 162.242 41.9226C162.311 41.9741 162.454 41.9999 162.67 41.9999H162.927V42.9167C162.691 42.9167 162.457 42.915 162.227 42.9115C161.997 42.9081 161.722 42.9064 161.403 42.9064C161.053 42.9064 160.74 42.9081 160.465 42.9115C160.194 42.915 159.923 42.9167 159.652 42.9167ZM162.139 39.234H162.974C163.836 39.234 164.267 38.8786 164.267 38.1678C164.267 37.8141 164.16 37.5497 163.947 37.3746C163.738 37.1995 163.382 37.1119 162.881 37.1119H162.139V39.234Z" fill="#FEFEFE"/>
<path d="M166.636 42.9167V41.9999H166.888C167.057 41.9999 167.173 41.9776 167.239 41.9329C167.304 41.8883 167.342 41.8248 167.352 41.7424C167.366 41.6565 167.372 41.5552 167.372 41.4385V37.5652C167.372 37.4004 167.345 37.2819 167.29 37.2098C167.239 37.1343 167.111 37.0965 166.909 37.0965H166.667V36.1797C166.732 36.1797 166.856 36.1814 167.038 36.1848C167.223 36.1848 167.421 36.1866 167.63 36.19C167.843 36.19 168.02 36.19 168.16 36.19C168.253 36.19 168.361 36.19 168.485 36.19C168.612 36.19 168.744 36.19 168.882 36.19C169.022 36.1866 169.163 36.1848 169.304 36.1848C169.448 36.1814 169.584 36.1797 169.711 36.1797C169.711 36.1797 169.738 36.2655 169.793 36.4372C169.852 36.6055 169.927 36.8304 170.02 37.1119C170.113 37.3935 170.214 37.7025 170.324 38.0391C170.437 38.3721 170.549 38.7069 170.659 39.0434C170.768 39.3765 170.87 39.6838 170.962 39.9654C171.059 40.247 171.134 40.4736 171.189 40.6453C171.247 40.8135 171.277 40.8977 171.277 40.8977C171.304 40.7981 171.349 40.6521 171.411 40.4599C171.472 40.2676 171.544 40.0461 171.627 39.7954C171.713 39.5413 171.804 39.2735 171.9 38.9919C171.999 38.7069 172.097 38.4219 172.193 38.1369C172.293 37.8519 172.386 37.5824 172.472 37.3283C172.561 37.0707 172.638 36.8424 172.703 36.6432C172.772 36.4441 172.822 36.2896 172.853 36.1797C172.976 36.1797 173.114 36.1814 173.265 36.1848C173.419 36.1848 173.575 36.1866 173.733 36.19C173.891 36.19 174.041 36.19 174.182 36.19C174.326 36.19 174.449 36.19 174.552 36.19C174.666 36.19 174.817 36.19 175.006 36.19C175.198 36.1866 175.38 36.1848 175.552 36.1848C175.723 36.1814 175.833 36.1797 175.881 36.1797V37.0965H175.619C175.406 37.0965 175.277 37.1274 175.232 37.1892C175.191 37.2476 175.17 37.3351 175.17 37.4519C175.17 37.4553 175.17 37.5326 175.17 37.6837C175.17 37.8348 175.17 38.0322 175.17 38.276C175.17 38.5163 175.17 38.7807 175.17 39.0692C175.174 39.3576 175.176 39.646 175.176 39.9345C175.176 40.2229 175.176 40.4873 175.176 40.7277C175.176 40.968 175.176 41.162 175.176 41.3097C175.176 41.4539 175.176 41.526 175.176 41.526C175.176 41.7114 175.201 41.8368 175.253 41.902C175.304 41.9673 175.435 41.9999 175.644 41.9999H175.897V42.9167C175.639 42.9167 175.383 42.915 175.129 42.9115C174.879 42.9081 174.583 42.9064 174.243 42.9064C173.951 42.9064 173.713 42.9081 173.527 42.9115C173.342 42.915 173.145 42.9167 172.935 42.9167V41.9999H173.146C173.38 41.9999 173.524 41.9432 173.579 41.8299C173.634 41.7132 173.661 41.5501 173.661 41.3406V36.9986C173.661 36.9986 173.646 37.0398 173.615 37.1222C173.588 37.2012 173.553 37.2957 173.512 37.4055C173.474 37.512 173.44 37.6064 173.409 37.6888C173.381 37.7678 173.368 37.8073 173.368 37.8073L171.544 42.9167H170.597C170.555 42.8068 170.489 42.6214 170.396 42.3604C170.303 42.0995 170.197 41.7973 170.076 41.4539C169.956 41.1071 169.831 40.7466 169.701 40.3723C169.57 39.998 169.443 39.6375 169.319 39.2907C169.199 38.9439 169.093 38.64 169 38.379C168.911 38.118 168.846 37.9326 168.804 37.8227C168.804 37.8227 168.789 37.7832 168.758 37.7043C168.73 37.6219 168.698 37.5274 168.66 37.421C168.622 37.3111 168.588 37.2167 168.557 37.1377C168.526 37.0553 168.511 37.0141 168.511 37.0141V41.5415C168.511 41.7441 168.538 41.8711 168.593 41.9226C168.651 41.9741 168.779 41.9999 168.974 41.9999H169.221V42.9167C169.026 42.9167 168.833 42.915 168.645 42.9115C168.459 42.9081 168.231 42.9064 167.96 42.9064C167.671 42.9064 167.431 42.9081 167.239 42.9115C167.046 42.915 166.845 42.9167 166.636 42.9167Z" fill="#FEFEFE"/>
<path d="M176.613 42.9167V41.9999H176.994C177.172 41.9999 177.279 41.9415 177.313 41.8248C177.351 41.708 177.37 41.5724 177.37 41.4179V37.7094C177.37 37.5549 177.354 37.4124 177.323 37.2819C177.296 37.1514 177.186 37.0862 176.994 37.0862H176.633V36.1797H182.5V38.0545H181.495V37.8433C181.495 37.6236 181.465 37.4691 181.403 37.3798C181.344 37.2871 181.262 37.2321 181.155 37.215C181.049 37.1978 180.922 37.1892 180.774 37.1892H179.049V39.0589H180.064C180.167 39.0589 180.249 39.0503 180.311 39.0331C180.373 39.016 180.422 38.973 180.46 38.9044C180.498 38.8357 180.529 38.7258 180.553 38.5747H180.991V40.398H180.548C180.51 40.1748 180.457 40.0392 180.388 39.9911C180.323 39.9396 180.215 39.9139 180.064 39.9139H179.049V41.9175H180.846C181.101 41.9175 181.276 41.8711 181.372 41.7784C181.471 41.6857 181.523 41.4574 181.526 41.0934C181.526 41.0796 181.526 41.0522 181.526 41.011C181.526 40.9698 181.526 40.9423 181.526 40.9286H182.52V42.9167H176.613Z" fill="#FEFEFE"/>
<path d="M188.299 42.9888L185.204 37.8279C185.2 37.8279 185.197 37.8279 185.194 37.8279V41.5466C185.194 41.7561 185.226 41.8849 185.291 41.9329C185.357 41.9776 185.503 41.9999 185.729 41.9999H185.982V42.9167C185.786 42.9167 185.587 42.915 185.384 42.9115C185.185 42.9081 184.953 42.9064 184.689 42.9064C184.397 42.9064 184.148 42.9081 183.942 42.9115C183.739 42.915 183.528 42.9167 183.308 42.9167V41.9999H183.576C183.745 41.9999 183.863 41.9793 183.932 41.9381C184 41.8934 184.04 41.8282 184.05 41.7424C184.064 41.6565 184.071 41.5466 184.071 41.4127V37.6167C184.071 37.4141 184.047 37.2768 183.999 37.2047C183.954 37.1325 183.817 37.0965 183.587 37.0965H183.319C183.319 37.0828 183.319 37.0312 183.319 36.942C183.319 36.8527 183.319 36.7514 183.319 36.6381C183.319 36.5248 183.319 36.4235 183.319 36.3342C183.319 36.2449 183.319 36.1934 183.319 36.1797C183.319 36.1797 183.384 36.1797 183.514 36.1797C183.648 36.1797 183.803 36.1797 183.978 36.1797C184.153 36.1797 184.309 36.1797 184.447 36.1797C184.588 36.1797 184.666 36.1797 184.684 36.1797C184.715 36.1797 184.788 36.1797 184.905 36.1797C185.022 36.1797 185.151 36.1797 185.291 36.1797C185.436 36.1797 185.566 36.1797 185.683 36.1797C185.803 36.1797 185.879 36.1797 185.91 36.1797C185.91 36.1797 185.963 36.269 186.069 36.4475C186.176 36.6261 186.316 36.863 186.492 37.1583C186.667 37.4536 186.859 37.7781 187.068 38.1318C187.281 38.482 187.492 38.834 187.702 39.1876C187.911 39.5413 188.104 39.8658 188.279 40.1611C188.454 40.4564 188.595 40.6933 188.701 40.8719C188.808 41.0505 188.861 41.1397 188.861 41.1397V37.5291C188.861 37.3369 188.826 37.2167 188.758 37.1686C188.693 37.1205 188.553 37.0965 188.341 37.0965H188.104V36.1797C188.358 36.1797 188.588 36.1814 188.794 36.1848C189 36.1883 189.187 36.19 189.355 36.19C189.407 36.19 189.505 36.19 189.649 36.19C189.793 36.1866 189.948 36.1848 190.112 36.1848C190.281 36.1848 190.423 36.1848 190.54 36.1848C190.66 36.1814 190.72 36.1797 190.72 36.1797V37.0965H190.458C190.227 37.0965 190.092 37.1463 190.051 37.2459C190.013 37.342 189.994 37.4708 189.994 37.6322C189.994 37.639 189.994 37.742 189.994 37.9412C189.994 38.1369 189.994 38.3945 189.994 38.7138C189.994 39.0331 189.994 39.3834 189.994 39.7645C189.994 40.1422 189.994 40.5217 189.994 40.9028C189.994 41.2805 189.994 41.6273 189.994 41.9432C189.994 42.2557 189.994 42.5081 189.994 42.7004C189.994 42.8927 189.994 42.9888 189.994 42.9888H188.299Z" fill="#FEFEFE"/>
<path d="M192.786 42.9167V41.9999H193.074C193.242 41.9999 193.361 41.9707 193.429 41.9123C193.498 41.854 193.538 41.7801 193.548 41.6908C193.562 41.6016 193.568 41.5106 193.568 41.4179V37.1944H192.744C192.556 37.1944 192.415 37.2064 192.322 37.2304C192.229 37.251 192.168 37.2905 192.137 37.3489C192.106 37.4072 192.09 37.4897 192.09 37.5961C192.09 37.6442 192.09 37.7232 192.09 37.833C192.09 37.9429 192.09 38.0562 192.09 38.173C192.094 38.2897 192.095 38.3841 192.095 38.4563H191.287V36.1797C191.287 36.1797 191.378 36.1814 191.56 36.1848C191.745 36.1848 191.972 36.1848 192.24 36.1848C192.507 36.1848 192.774 36.1866 193.038 36.19C193.306 36.19 193.522 36.19 193.687 36.19H195.634C195.833 36.19 196.042 36.19 196.262 36.19C196.482 36.1866 196.7 36.1848 196.916 36.1848C197.133 36.1814 197.334 36.1797 197.519 36.1797V38.4563H196.705V37.7609C196.705 37.5995 196.69 37.4794 196.659 37.4004C196.628 37.318 196.556 37.263 196.443 37.2356C196.329 37.2081 196.147 37.1944 195.897 37.1944H195.253V41.6033C195.253 41.6548 195.261 41.7115 195.278 41.7733C195.299 41.8351 195.344 41.8883 195.412 41.9329C195.485 41.9776 195.596 41.9999 195.747 41.9999H196.036V42.9167C195.782 42.9167 195.536 42.9167 195.299 42.9167C195.066 42.9133 194.775 42.9098 194.429 42.9064C194.312 42.9064 194.183 42.9081 194.042 42.9115C193.902 42.9115 193.757 42.9115 193.61 42.9115C193.465 42.9115 193.323 42.9133 193.182 42.9167C193.041 42.9167 192.909 42.9167 192.786 42.9167Z" fill="#FEFEFE"/>
<path d="M116.489 55.5235V54.6067H116.695C116.874 54.6067 116.999 54.5861 117.071 54.5449C117.147 54.5003 117.192 54.435 117.205 54.3492C117.223 54.2633 117.231 54.1569 117.231 54.0298V50.2956C117.231 50.1617 117.223 50.0518 117.205 49.966C117.192 49.8767 117.147 49.8115 117.071 49.7703C116.996 49.7256 116.871 49.7033 116.695 49.7033H116.489V48.7865C116.798 48.7899 117.058 48.7934 117.267 48.7968C117.48 48.7968 117.686 48.7968 117.885 48.7968C118.16 48.7968 118.395 48.7968 118.591 48.7968C118.79 48.7968 118.972 48.7968 119.137 48.7968C119.305 48.7934 119.48 48.7899 119.662 48.7865V49.7033H119.446C119.285 49.7033 119.166 49.7239 119.09 49.7651C119.015 49.8029 118.967 49.8595 118.946 49.9351C118.926 50.0072 118.915 50.093 118.915 50.1926V54.138C118.915 54.2616 118.924 54.3578 118.941 54.4264C118.958 54.4917 119.003 54.538 119.075 54.5655C119.151 54.593 119.274 54.6067 119.446 54.6067H119.662V55.5235C119.408 55.5235 119.161 55.5218 118.921 55.5184C118.684 55.5149 118.395 55.5132 118.055 55.5132C117.739 55.5132 117.459 55.5149 117.216 55.5184C116.975 55.5218 116.733 55.5235 116.489 55.5235Z" fill="#FEFEFE"/>
<path d="M125.287 55.5956L122.191 50.4347C122.188 50.4347 122.184 50.4347 122.181 50.4347V54.1535C122.181 54.3629 122.213 54.4917 122.279 54.5397C122.344 54.5844 122.49 54.6067 122.717 54.6067H122.969V55.5235C122.773 55.5235 122.574 55.5218 122.371 55.5184C122.172 55.5149 121.941 55.5132 121.676 55.5132C121.384 55.5132 121.135 55.5149 120.929 55.5184C120.727 55.5218 120.515 55.5235 120.296 55.5235V54.6067H120.564C120.732 54.6067 120.85 54.5861 120.919 54.5449C120.988 54.5003 121.027 54.435 121.037 54.3492C121.051 54.2633 121.058 54.1535 121.058 54.0195V50.2235C121.058 50.0209 121.034 49.8836 120.986 49.8115C120.941 49.7394 120.804 49.7033 120.574 49.7033H120.306C120.306 49.6896 120.306 49.6381 120.306 49.5488C120.306 49.4595 120.306 49.3582 120.306 49.2449C120.306 49.1316 120.306 49.0303 120.306 48.941C120.306 48.8517 120.306 48.8002 120.306 48.7865C120.306 48.7865 120.371 48.7865 120.502 48.7865C120.636 48.7865 120.79 48.7865 120.965 48.7865C121.14 48.7865 121.297 48.7865 121.434 48.7865C121.575 48.7865 121.654 48.7865 121.671 48.7865C121.702 48.7865 121.776 48.7865 121.892 48.7865C122.009 48.7865 122.138 48.7865 122.279 48.7865C122.423 48.7865 122.553 48.7865 122.67 48.7865C122.79 48.7865 122.866 48.7865 122.897 48.7865C122.897 48.7865 122.95 48.8758 123.056 49.0543C123.163 49.2329 123.304 49.4698 123.479 49.7651C123.654 50.0604 123.846 50.3849 124.056 50.7386C124.269 51.0888 124.48 51.4408 124.689 51.7945C124.899 52.1481 125.091 52.4726 125.266 52.7679C125.441 53.0632 125.582 53.3002 125.688 53.4787C125.795 53.6573 125.848 53.7466 125.848 53.7466V50.136C125.848 49.9437 125.814 49.8235 125.745 49.7754C125.68 49.7273 125.541 49.7033 125.328 49.7033H125.091V48.7865C125.345 48.7865 125.575 48.7882 125.781 48.7917C125.987 48.7951 126.174 48.7968 126.343 48.7968C126.394 48.7968 126.492 48.7968 126.636 48.7968C126.78 48.7934 126.935 48.7917 127.1 48.7917C127.268 48.7917 127.41 48.7917 127.527 48.7917C127.647 48.7882 127.707 48.7865 127.707 48.7865V49.7033H127.445C127.215 49.7033 127.079 49.7531 127.038 49.8527C127 49.9488 126.981 50.0776 126.981 50.239C126.981 50.2458 126.981 50.3489 126.981 50.548C126.981 50.7437 126.981 51.0013 126.981 51.3206C126.981 51.6399 126.981 51.9902 126.981 52.3713C126.981 52.749 126.981 53.1285 126.981 53.5096C126.981 53.8873 126.981 54.2341 126.981 54.55C126.981 54.8625 126.981 55.1149 126.981 55.3072C126.981 55.4995 126.981 55.5956 126.981 55.5956H125.287Z" fill="#FEFEFE"/>
<path d="M128.367 55.5235V54.6067H128.573C128.751 54.6067 128.877 54.5861 128.949 54.5449C129.024 54.5003 129.069 54.435 129.083 54.3492C129.1 54.2633 129.108 54.1569 129.108 54.0298V50.2956C129.108 50.1617 129.1 50.0518 129.083 49.966C129.069 49.8767 129.024 49.8115 128.949 49.7703C128.873 49.7256 128.748 49.7033 128.573 49.7033H128.367V48.7865C128.676 48.7899 128.935 48.7934 129.145 48.7968C129.357 48.7968 129.563 48.7968 129.763 48.7968C130.037 48.7968 130.273 48.7968 130.468 48.7968C130.667 48.7968 130.849 48.7968 131.014 48.7968C131.182 48.7934 131.358 48.7899 131.54 48.7865V49.7033H131.323C131.162 49.7033 131.043 49.7239 130.968 49.7651C130.892 49.8029 130.844 49.8595 130.824 49.9351C130.803 50.0072 130.793 50.093 130.793 50.1926V54.138C130.793 54.2616 130.801 54.3578 130.818 54.4264C130.836 54.4917 130.88 54.538 130.952 54.5655C131.028 54.593 131.152 54.6067 131.323 54.6067H131.54V55.5235C131.285 55.5235 131.038 55.5218 130.798 55.5184C130.561 55.5149 130.272 55.5132 129.933 55.5132C129.617 55.5132 129.337 55.5149 129.093 55.5184C128.853 55.5218 128.611 55.5235 128.367 55.5235Z" fill="#FEFEFE"/>
<path d="M133.698 55.5235V54.6067H133.986C134.154 54.6067 134.273 54.5775 134.341 54.5191C134.41 54.4608 134.45 54.3869 134.46 54.2977C134.474 54.2084 134.481 54.1174 134.481 54.0247V49.8012H133.656C133.468 49.8012 133.327 49.8132 133.234 49.8372C133.141 49.8578 133.08 49.8973 133.049 49.9557C133.018 50.0141 133.002 50.0965 133.002 50.2029C133.002 50.251 133.002 50.33 133.002 50.4399C133.002 50.5497 133.002 50.663 133.002 50.7798C133.006 50.8965 133.007 50.991 133.007 51.0631H132.199V48.7865C132.199 48.7865 132.29 48.7882 132.472 48.7917C132.657 48.7917 132.884 48.7917 133.152 48.7917C133.42 48.7917 133.686 48.7934 133.95 48.7968C134.218 48.7968 134.434 48.7968 134.599 48.7968H136.546C136.745 48.7968 136.955 48.7968 137.174 48.7968C137.394 48.7934 137.612 48.7917 137.828 48.7917C138.045 48.7882 138.246 48.7865 138.431 48.7865V51.0631H137.617V50.3677C137.617 50.2064 137.602 50.0862 137.571 50.0072C137.54 49.9248 137.468 49.8699 137.355 49.8424C137.241 49.8149 137.059 49.8012 136.809 49.8012H136.165V54.2101C136.165 54.2616 136.173 54.3183 136.191 54.3801C136.211 54.4419 136.256 54.4951 136.324 54.5397C136.397 54.5844 136.508 54.6067 136.659 54.6067H136.948V55.5235C136.694 55.5235 136.448 55.5235 136.211 55.5235C135.978 55.5201 135.688 55.5166 135.341 55.5132C135.224 55.5132 135.095 55.5149 134.954 55.5184C134.814 55.5184 134.669 55.5184 134.522 55.5184C134.378 55.5184 134.235 55.5201 134.094 55.5235C133.953 55.5235 133.821 55.5235 133.698 55.5235Z" fill="#FEFEFE"/>
<path d="M139.111 55.5235V54.6067H139.317C139.496 54.6067 139.621 54.5861 139.693 54.5449C139.769 54.5003 139.813 54.435 139.827 54.3492C139.844 54.2633 139.853 54.1569 139.853 54.0298V50.2956C139.853 50.1617 139.844 50.0518 139.827 49.966C139.813 49.8767 139.769 49.8115 139.693 49.7703C139.617 49.7256 139.492 49.7033 139.317 49.7033H139.111V48.7865C139.42 48.7899 139.679 48.7934 139.889 48.7968C140.102 48.7968 140.308 48.7968 140.507 48.7968C140.781 48.7968 141.017 48.7968 141.212 48.7968C141.412 48.7968 141.594 48.7968 141.758 48.7968C141.927 48.7934 142.102 48.7899 142.284 48.7865V49.7033H142.067C141.906 49.7033 141.788 49.7239 141.712 49.7651C141.636 49.8029 141.588 49.8595 141.568 49.9351C141.547 50.0072 141.537 50.093 141.537 50.1926V54.138C141.537 54.2616 141.545 54.3578 141.563 54.4264C141.58 54.4917 141.624 54.538 141.697 54.5655C141.772 54.593 141.896 54.6067 142.067 54.6067H142.284V55.5235C142.03 55.5235 141.782 55.5218 141.542 55.5184C141.305 55.5149 141.017 55.5132 140.677 55.5132C140.361 55.5132 140.081 55.5149 139.837 55.5184C139.597 55.5218 139.355 55.5235 139.111 55.5235Z" fill="#FEFEFE"/>
<path d="M142.655 55.5235V54.6067C142.819 54.5895 142.945 54.5724 143.031 54.5552C143.12 54.538 143.19 54.5003 143.242 54.4419C143.293 54.3801 143.346 54.2805 143.401 54.1432C143.432 54.0676 143.482 53.9423 143.551 53.7672C143.623 53.5886 143.707 53.3774 143.803 53.1336C143.899 52.8898 144.001 52.6289 144.107 52.3507C144.217 52.0726 144.325 51.7945 144.432 51.5163C144.541 51.2382 144.644 50.9772 144.741 50.7334C144.84 50.4862 144.924 50.2733 144.993 50.0948C145.065 49.9128 145.117 49.7823 145.147 49.7033L145.384 48.7865H147.378C147.378 48.7865 147.407 48.8655 147.465 49.0234C147.524 49.1779 147.601 49.3874 147.697 49.6518C147.793 49.9128 147.9 50.2029 148.016 50.5223C148.137 50.8382 148.257 51.1609 148.377 51.4906C148.501 51.8168 148.616 52.1258 148.722 52.4177C148.828 52.7061 148.919 52.9516 148.995 53.1542C149.071 53.3568 149.12 53.4907 149.144 53.556C149.23 53.7929 149.297 53.9818 149.345 54.1225C149.397 54.2599 149.45 54.3629 149.505 54.4316C149.563 54.5003 149.639 54.5466 149.732 54.5706C149.828 54.5947 149.963 54.6084 150.138 54.6119V55.5235C149.936 55.5235 149.74 55.5218 149.551 55.5184C149.362 55.5149 149.141 55.5132 148.887 55.5132C148.595 55.5132 148.305 55.5149 148.016 55.5184C147.731 55.5184 147.426 55.5201 147.1 55.5235V54.6737C147.127 54.6737 147.173 54.6737 147.239 54.6737C147.304 54.6737 147.347 54.6719 147.367 54.6685C147.529 54.6616 147.64 54.6445 147.702 54.617C147.767 54.5861 147.8 54.538 147.8 54.4728C147.8 54.4316 147.791 54.3818 147.774 54.3234C147.757 54.2616 147.735 54.1912 147.707 54.1122L147.378 53.1388H145.003C144.993 53.1662 144.974 53.2195 144.947 53.2984C144.923 53.374 144.893 53.4616 144.859 53.5611C144.825 53.6573 144.79 53.7551 144.756 53.8547C144.725 53.9509 144.698 54.035 144.674 54.1071C144.653 54.1792 144.639 54.2273 144.632 54.2513C144.598 54.3612 144.581 54.4367 144.581 54.4779C144.581 54.5535 144.605 54.605 144.653 54.6325C144.701 54.6565 144.778 54.6702 144.885 54.6737C144.905 54.6771 144.965 54.6788 145.065 54.6788C145.168 54.6788 145.232 54.6788 145.256 54.6788V55.5235C145.046 55.5235 144.833 55.5218 144.617 55.5184C144.404 55.5149 144.176 55.5132 143.932 55.5132C143.692 55.5132 143.477 55.5149 143.288 55.5184C143.099 55.5184 142.888 55.5201 142.655 55.5235ZM145.24 52.4692H147.141L146.219 49.76L145.24 52.4692Z" fill="#FEFEFE"/>
<path d="M151.498 55.5235V54.6067H151.787C151.955 54.6067 152.073 54.5775 152.142 54.5191C152.211 54.4608 152.25 54.3869 152.26 54.2977C152.274 54.2084 152.281 54.1174 152.281 54.0247V49.8012H151.457C151.268 49.8012 151.127 49.8132 151.035 49.8372C150.942 49.8578 150.88 49.8973 150.849 49.9557C150.818 50.0141 150.803 50.0965 150.803 50.2029C150.803 50.251 150.803 50.33 150.803 50.4399C150.803 50.5497 150.803 50.663 150.803 50.7798C150.806 50.8965 150.808 50.991 150.808 51.0631H149.999V48.7865C149.999 48.7865 150.09 48.7882 150.272 48.7917C150.458 48.7917 150.684 48.7917 150.952 48.7917C151.22 48.7917 151.486 48.7934 151.751 48.7968C152.018 48.7968 152.235 48.7968 152.4 48.7968H154.346C154.546 48.7968 154.755 48.7968 154.975 48.7968C155.195 48.7934 155.413 48.7917 155.629 48.7917C155.845 48.7882 156.046 48.7865 156.232 48.7865V51.0631H155.418V50.3677C155.418 50.2064 155.402 50.0862 155.371 50.0072C155.341 49.9248 155.268 49.8699 155.155 49.8424C155.042 49.8149 154.86 49.8012 154.609 49.8012H153.965V54.2101C153.965 54.2616 153.974 54.3183 153.991 54.3801C154.012 54.4419 154.056 54.4951 154.125 54.5397C154.197 54.5844 154.309 54.6067 154.46 54.6067H154.748V55.5235C154.494 55.5235 154.249 55.5235 154.012 55.5235C153.778 55.5201 153.488 55.5166 153.141 55.5132C153.025 55.5132 152.896 55.5149 152.755 55.5184C152.614 55.5184 152.47 55.5184 152.322 55.5184C152.178 55.5184 152.036 55.5201 151.895 55.5235C151.754 55.5235 151.622 55.5235 151.498 55.5235Z" fill="#FEFEFE"/>
<path d="M156.912 55.5235V54.6067H157.118C157.296 54.6067 157.421 54.5861 157.494 54.5449C157.569 54.5003 157.614 54.435 157.627 54.3492C157.645 54.2633 157.653 54.1569 157.653 54.0298V50.2956C157.653 50.1617 157.645 50.0518 157.627 49.966C157.614 49.8767 157.569 49.8115 157.494 49.7703C157.418 49.7256 157.293 49.7033 157.118 49.7033H156.912V48.7865C157.221 48.7899 157.48 48.7934 157.689 48.7968C157.902 48.7968 158.108 48.7968 158.307 48.7968C158.582 48.7968 158.817 48.7968 159.013 48.7968C159.212 48.7968 159.394 48.7968 159.559 48.7968C159.727 48.7934 159.902 48.7899 160.084 48.7865V49.7033H159.868C159.707 49.7033 159.588 49.7239 159.513 49.7651C159.437 49.8029 159.389 49.8595 159.368 49.9351C159.348 50.0072 159.337 50.093 159.337 50.1926V54.138C159.337 54.2616 159.346 54.3578 159.363 54.4264C159.38 54.4917 159.425 54.538 159.497 54.5655C159.573 54.593 159.696 54.6067 159.868 54.6067H160.084V55.5235C159.83 55.5235 159.583 55.5218 159.343 55.5184C159.106 55.5149 158.817 55.5132 158.477 55.5132C158.161 55.5132 157.882 55.5149 157.638 55.5184C157.397 55.5218 157.155 55.5235 156.912 55.5235Z" fill="#FEFEFE"/>
<path d="M163.35 55.6008L161.269 50.4193C161.207 50.2647 161.149 50.1342 161.094 50.0278C161.039 49.9214 160.963 49.8407 160.867 49.7857C160.774 49.7308 160.641 49.7033 160.465 49.7033V48.7865C160.503 48.7865 160.586 48.7882 160.713 48.7917C160.843 48.7951 160.982 48.7985 161.13 48.802C161.281 48.802 161.406 48.802 161.506 48.802C161.595 48.802 161.743 48.802 161.949 48.802C162.158 48.7985 162.378 48.7968 162.608 48.7968C162.838 48.7934 163.036 48.7917 163.2 48.7917C163.365 48.7882 163.448 48.7865 163.448 48.7865V49.7033C163.248 49.7067 163.08 49.7188 162.943 49.7394C162.809 49.76 162.742 49.8321 162.742 49.9557C162.742 50.0141 162.756 50.0793 162.783 50.1514C162.797 50.1892 162.831 50.2853 162.886 50.4399C162.945 50.5944 163.017 50.7884 163.103 51.0219C163.192 51.2519 163.286 51.5026 163.386 51.7739C163.489 52.0417 163.592 52.3112 163.695 52.5825C163.798 52.8503 163.892 53.101 163.978 53.3345C164.067 53.5646 164.141 53.7569 164.2 53.9114C164.258 54.0625 164.294 54.1569 164.308 54.1947L165.745 50.1669C165.762 50.1119 165.776 50.0639 165.786 50.0227C165.8 49.9814 165.807 49.9471 165.807 49.9196C165.807 49.8338 165.765 49.7789 165.683 49.7548C165.604 49.7274 165.479 49.7119 165.307 49.7085C165.293 49.7085 165.259 49.7085 165.204 49.7085C165.149 49.7085 165.113 49.7067 165.096 49.7033V48.7865C165.096 48.7865 165.151 48.7882 165.261 48.7917C165.371 48.7917 165.503 48.7917 165.657 48.7917C165.812 48.7917 165.959 48.7934 166.1 48.7968C166.241 48.7968 166.342 48.7968 166.404 48.7968C166.6 48.7968 166.799 48.7968 167.002 48.7968C167.204 48.7934 167.426 48.7899 167.666 48.7865V49.7033C167.522 49.7033 167.403 49.7256 167.311 49.7703C167.218 49.8149 167.137 49.887 167.069 49.9866C167.003 50.0827 166.938 50.2132 166.873 50.378C166.808 50.5394 166.73 50.7403 166.641 50.9807L164.9 55.6008H163.35Z" fill="#FEFEFE"/>
<path d="M168.032 55.5235V54.6067H168.413C168.591 54.6067 168.698 54.5483 168.732 54.4316C168.77 54.3148 168.789 54.1792 168.789 54.0247V50.3162C168.789 50.1617 168.773 50.0192 168.742 49.8887C168.715 49.7583 168.605 49.693 168.413 49.693H168.052V48.7865H173.919V50.6613H172.914V50.4502C172.914 50.2304 172.884 50.0759 172.822 49.9866C172.763 49.8939 172.681 49.8389 172.575 49.8218C172.468 49.8046 172.341 49.796 172.193 49.796H170.468V51.6657H171.483C171.586 51.6657 171.668 51.6571 171.73 51.6399C171.792 51.6228 171.841 51.5799 171.879 51.5112C171.917 51.4425 171.948 51.3326 171.972 51.1815H172.41V53.0049H171.967C171.929 52.7817 171.876 52.646 171.807 52.598C171.742 52.5465 171.634 52.5207 171.483 52.5207H170.468V54.5243H172.266C172.52 54.5243 172.695 54.4779 172.791 54.3852C172.89 54.2925 172.942 54.0642 172.945 53.7002C172.945 53.6865 172.945 53.659 172.945 53.6178C172.945 53.5766 172.945 53.5491 172.945 53.5354H173.939V55.5235H168.032Z" fill="#FEFEFE"/>
</svg>
